g Eyesparkle3.I
v -0.03372912 1.629727 0.03566791
v -0.0331191 1.628297 0.03620522
v -0.03351841 1.626784 0.03657656
v -0.03477173 1.625828 0.03657489
v -0.03488952 1.63035 0.03526512
v -0.03631759 1.625844 0.03620523
v -0.03657686 1.6302 0.0349627
v -0.03752636 1.626814 0.03566974
v -0.03720794 1.629728 0.03496103
v -0.03781997 1.628154 0.03525558
vt 0.3367435 0.3780943
vt 0.3363636 0.374797
vt 0.3346257 0.3720035
vt 0.3324009 0.3720125
vt 0.3357645 0.3801257
vt 0.3306741 0.3747872
vt 0.3339577 0.3816415
vt 0.3302936 0.3780705
vt 0.333131 0.3816424
vt 0.3313192 0.3801525
vn -0.2016878 0.2636748 0.9432908
vn -0.2016878 0.2636748 0.9432908
vn -0.2016878 0.2636748 0.9432908
vn -0.2016878 0.2636748 0.9432908
vn -0.2016878 0.2636748 0.9432908
vn -0.2016878 0.2636748 0.9432908
vn -0.2016878 0.2636748 0.9432908
vn -0.2016878 0.2636748 0.9432908
vn -0.2016878 0.2636748 0.9432908
vn -0.2016878 0.2636748 0.9432908
g Eyesparkle3.I_0
f 3/3/3 2/2/2 1/1/1
f 1/1/1 4/4/4 3/3/3
f 1/1/1 5/5/5 4/4/4
f 5/5/5 6/6/6 4/4/4
f 5/5/5 7/7/7 6/6/6
f 7/7/7 8/8/8 6/6/6
f 7/7/7 9/9/9 8/8/8
f 9/9/9 10/10/10 8/8/8
