g Eyesparkle3
v 0.03144654 1.629727 0.03566791
v 0.03205656 1.628297 0.03620522
v 0.03165726 1.626784 0.03657656
v 0.03040393 1.625828 0.03657489
v 0.03028614 1.63035 0.03526511
v 0.02885808 1.625844 0.03620523
v 0.02859881 1.6302 0.03496271
v 0.02764931 1.626814 0.03566975
v 0.02796773 1.629728 0.03496103
v 0.02735569 1.628154 0.03525559
vt 0.3367435 0.3780944
vt 0.3363637 0.3747968
vt 0.3346258 0.372003
vt 0.3324012 0.3720121
vt 0.3357646 0.380126
vt 0.3306742 0.3747871
vt 0.3339578 0.3816416
vt 0.3302936 0.3780709
vt 0.3331313 0.3816425
vt 0.3313194 0.3801523
vn -0.2016866 0.2636752 0.9432911
vn -0.2016866 0.2636752 0.9432911
vn -0.2016866 0.2636752 0.9432911
vn -0.2016866 0.2636752 0.9432911
vn -0.2016866 0.2636752 0.9432911
vn -0.2016866 0.2636752 0.9432911
vn -0.2016866 0.2636752 0.9432911
vn -0.2016866 0.2636752 0.9432911
vn -0.2016866 0.2636752 0.9432911
vn -0.2016866 0.2636752 0.9432911
g Eyesparkle3_0
f 3/3/3 2/2/2 1/1/1
f 1/1/1 4/4/4 3/3/3
f 1/1/1 5/5/5 4/4/4
f 5/5/5 6/6/6 4/4/4
f 5/5/5 7/7/7 6/6/6
f 7/7/7 8/8/8 6/6/6
f 7/7/7 9/9/9 8/8/8
f 9/9/9 10/10/10 8/8/8
