g Eyesparkle2.i
v -0.035276 1.62779 0.03587659
v -0.03731274 1.626227 0.03587659
v -0.03932175 1.62846 0.0347255
v -0.03880128 1.630288 0.03450714
v -0.03663708 1.631898 0.03451493
v -0.03290202 1.626091 0.03695059
v -0.0332255 1.625118 0.03717151
v -0.03323926 1.629353 0.03587659
v -0.03731274 1.626227 0.03587659
v -0.03424863 1.625057 0.03695059
v -0.03663708 1.631898 0.03451493
v -0.03487574 1.631871 0.03472549
vt 0.333516 0.3765799
vt 0.3276826 0.3765795
vt 0.3254567 0.3897597
vt 0.3297112 0.3897597
vt 0.3374719 0.3897597
vt 0.3371244 0.3634008
vt 0.3335164 0.3634
vt 0.3393494 0.3765803
vt 0.3276826 0.3765795
vt 0.3299084 0.3633992
vt 0.3374719 0.3897597
vt 0.3415744 0.3897598
vn -0.2011257 0.2624885 0.9437416
vn -0.225559 0.2539819 0.9405405
vn -0.2299802 0.2342485 0.9445829
vn -0.2098027 0.2431117 0.9470372
vn -0.1788756 0.2668547 0.9469911
vn -0.2184535 0.2846704 0.9334028
vn -0.2184477 0.2846701 0.9334043
vn -0.1869731 0.2836098 0.9405352
vn -0.225559 0.2539819 0.9405405
vn -0.218442 0.2846699 0.9334056
vn -0.1788756 0.2668547 0.9469911
vn -0.1667713 0.282778 0.944576
g Eyesparkle2.i_0
f 3/3/3 2/2/2 1/1/1
f 4/4/4 3/3/3 1/1/1
f 1/1/1 5/5/5 4/4/4
f 1/1/1 7/7/7 6/6/6
f 8/8/8 1/1/1 6/6/6
f 1/1/1 9/9/9 7/7/7
f 9/9/9 10/10/10 7/7/7
f 11/11/11 1/1/1 8/8/8
f 12/12/12 11/11/11 8/8/8
