g Eyesparkle5
v 0.03147209 1.629769 0.03573057
v 0.03269738 1.627605 0.03644728
v 0.03265537 1.625639 0.03690858
v 0.03137936 1.624734 0.03691444
v 0.02951459 1.631235 0.03510592
v 0.0294059 1.625257 0.03651337
v 0.02793836 1.631347 0.03488182
v 0.02780174 1.626801 0.03594828
v 0.0267368 1.630595 0.03491146
v 0.02667874 1.628744 0.03534669
v 0.03026399 1.62335 0.03664874
v 0.03051053 1.622747 0.03656604
v 0.02966492 1.621641 0.03612625
v 0.02901519 1.623199 0.03628983
v 0.02826248 1.620639 0.03558695
v 0.02730815 1.622352 0.03564395
v 0.02672828 1.619862 0.03504773
v 0.02586185 1.621171 0.03502959
v 0.02555688 1.61973 0.03470958
v 0.02538396 1.620311 0.03475869
vt 0.3363637 0.3747968
vt 0.3346258 0.372003
vt 0.3324012 0.3720121
vt 0.3306742 0.3747871
vt 0.3367435 0.3780944
vt 0.3302936 0.3780709
vt 0.3357646 0.380126
vt 0.3313194 0.3801523
vt 0.3339578 0.3816416
vt 0.3331313 0.3816425
vt 0.3324012 0.3720121
vt 0.3306742 0.3747871
vt 0.3302936 0.3780709
vt 0.3346258 0.372003
vt 0.3313194 0.3801523
vt 0.3363637 0.3747968
vt 0.3331313 0.3816425
vt 0.3367435 0.3780944
vt 0.3339578 0.3816416
vt 0.3357646 0.380126
vn -0.1321704 0.2295319 0.9642853
vn -0.1321704 0.2295319 0.9642853
vn -0.1321704 0.2295319 0.9642853
vn -0.1321704 0.2295319 0.9642853
vn -0.1321704 0.2295319 0.9642853
vn -0.1321704 0.2295319 0.9642853
vn -0.1321704 0.2295319 0.9642853
vn -0.1321704 0.2295319 0.9642853
vn -0.1321704 0.2295319 0.9642853
vn -0.1321704 0.2295319 0.9642853
vn -0.2521192 -0.1799019 0.9508266
vn -0.2521192 -0.1799019 0.9508266
vn -0.2521192 -0.1799019 0.9508266
vn -0.2521192 -0.1799019 0.9508266
vn -0.2521192 -0.1799019 0.9508266
vn -0.2521192 -0.1799019 0.9508266
vn -0.2521192 -0.1799019 0.9508266
vn -0.2521192 -0.1799019 0.9508266
vn -0.2521192 -0.1799019 0.9508266
vn -0.2521192 -0.1799019 0.9508266
g Eyesparkle5_0
f 3/3/3 2/2/2 1/1/1
f 1/1/1 4/4/4 3/3/3
f 1/1/1 5/5/5 4/4/4
f 5/5/5 6/6/6 4/4/4
f 5/5/5 7/7/7 6/6/6
f 7/7/7 8/8/8 6/6/6
f 7/7/7 9/9/9 8/8/8
f 9/9/9 10/10/10 8/8/8
f 13/13/13 12/12/12 11/11/11
f 11/11/11 14/14/14 13/13/13
f 14/14/14 15/15/15 13/13/13
f 14/14/14 16/16/16 15/15/15
f 16/16/16 17/17/17 15/15/15
f 16/16/16 18/18/18 17/17/17
f 18/18/18 19/19/19 17/17/17
f 18/18/18 20/20/20 19/19/19
