g CorporealFlesh_Male_Naked_NeckCap
v -1.280569E-09 1.496447 -0.08413262
v 0 1.500326 -0.09936365
v 0.01472151 1.502487 -0.09805389
v 0.01494891 1.497618 -0.08364325
v 0.03350502 1.505009 -0.09661937
v 0.02741629 1.50022 -0.08377988
v 0.04925257 1.505449 -0.08164431
v 0.03300621 1.499632 -0.07432088
v 0.05510437 1.499146 -0.06572086
v 0.01706043 1.496524 -0.07195567
v -1.082662E-08 1.495315 -0.07197801
v 0.03679678 1.496241 -0.06238867
v 0.05597508 1.48984 -0.04964715
v 0.01876542 1.493783 -0.06048735
v 0.03708351 1.488256 -0.04985754
v 0.0520643 1.476081 -0.03499056
v -0.01706044 1.496524 -0.07195569
v -0.01494892 1.497618 -0.08364327
v -1.14087E-08 1.492524 -0.05987969
v 0.01876808 1.486195 -0.04802448
v 0.03469029 1.478869 -0.03838715
v 0.04538524 1.46954 -0.02326321
v -0.03300621 1.499632 -0.07432089
v -0.02741629 1.50022 -0.08377988
v -0.03350502 1.505009 -0.09661937
v -0.04925257 1.505449 -0.08164431
v -0.03679679 1.496241 -0.0623887
v -0.01876544 1.493783 -0.06048737
v -0.03708352 1.488256 -0.04985756
v -0.01876809 1.486195 -0.0480245
v -0.03469029 1.478869 -0.03838716
v -8.149073E-09 1.484894 -0.04680577
v -0.01730702 1.477403 -0.036792
v -2.793968E-09 1.476126 -0.03515738
v -0.02918386 1.472064 -0.02895541
v -0.0520643 1.476081 -0.03499056
v -0.04538524 1.46954 -0.02326321
v -0.0143064 1.471462 -0.02812631
v -0.02382158 1.46803 -0.02159836
v -0.03146464 1.462877 -0.01224767
v -0.01257725 1.466656 -0.01872586
v -0.01429188 1.459493 -0.004519242
v 0.01730701 1.477403 -0.03679198
v -3.924546E-09 1.470478 -0.02628388
v -9.313226E-10 1.465757 -0.01662714
v 0 1.459194 -0.002025043
v 0.0143064 1.471462 -0.02812631
v 0.01257724 1.466657 -0.01872585
v 0.01429188 1.459493 -0.004519242
v 0.02918386 1.472064 -0.0289554
v 0.03146464 1.462877 -0.01224767
v 0.02382158 1.46803 -0.02159836
v -0.02741629 1.50022 -0.08377988
v -0.03350502 1.505009 -0.09661937
v -0.01472151 1.502487 -0.09805389
v -0.01494892 1.497618 -0.08364327
v 0 1.500326 -0.09936365
v -1.280569E-09 1.496447 -0.08413262
v -0.03679679 1.496241 -0.0623887
v -0.04925257 1.505449 -0.08164431
v -0.03300621 1.499632 -0.07432089
v -0.05510437 1.499146 -0.06572086
v -0.03708352 1.488256 -0.04985756
v -0.05597508 1.48984 -0.04964715
v -0.03469029 1.478869 -0.03838716
v -0.0520643 1.476081 -0.03499056
vt 0.4640622 0.773719
vt 0.6164006 0.8017569
vt 0.6069678 0.7998559
vt 0.4648851 0.7763362
vt 0.5949658 0.797332
vt 0.4618247 0.7786096
vt 0.5811316 0.7995182
vt 0.3956365 0.7724956
vt 0.08428064 0.7480547
vt 0.3917054 0.7637792
vt 0.3827832 0.7576481
vt 0.2746609 0.75915
vt 0.09607243 0.7463783
vt 0.3032843 0.7505952
vt 0.1912807 0.7478849
vt 0.1086578 0.7428557
vt 0.3520176 0.7473693
vt 0.4412463 0.7671283
vt 0.3007724 0.7428179
vt 0.2381953 0.740185
vt 0.1642449 0.7404692
vt 0.1162324 0.7370514
vt 0.2629006 0.721286
vt 0.3823037 0.7517721
vt 0.6347407 0.8137052
vt 0.06967083 0.6711635
vt 0.1914507 0.7023843
vt 0.2733003 0.7306295
vt 0.1624677 0.6944058
vt 0.2246072 0.7204565
vt 0.1528641 0.6928173
vt 0.2431453 0.7322903
vt 0.1988862 0.7151244
vt 0.2111321 0.7254831
vt 0.1512945 0.6943819
vt 0.105831 0.6724805
vt 0.1138468 0.6776599
vt 0.1813286 0.7120761
vt 0.1533212 0.7000285
vt 0.1218262 0.6866586
vt 0.154465 0.7076008
vt 0.1268828 0.6977185
vt 0.2059917 0.7329761
vt 0.1879348 0.7203248
vt 0.1547705 0.7131515
vt 0.128359 0.7068196
vt 0.1857505 0.7272902
vt 0.1558199 0.7191537
vt 0.1276177 0.7160113
vt 0.1583913 0.7357506
vt 0.1234644 0.7274414
vt 0.1571638 0.7281662
vt 0.3823037 0.7517721
vt 0.6347407 0.8137052
vt 0.6244396 0.8070482
vt 0.4412463 0.7671283
vt 0.6164006 0.8017569
vt 0.4640622 0.773719
vt 0.1914507 0.7023843
vt 0.06967083 0.6711635
vt 0.2629006 0.721286
vt 0.08111557 0.669256
vt 0.1624677 0.6944058
vt 0.09300379 0.6699799
vt 0.1528641 0.6928173
vt 0.105831 0.6724805
vn 5.913435E-05 0.9817734 0.1900551
vn 0 0.9588404 0.2839456
vn -0.1445993 0.9462196 0.2894122
vn -0.1263935 0.9615192 0.2439376
vn -0.2089061 0.9431334 0.2585688
vn -0.2779251 0.9301868 0.2398127
vn -0.1802166 0.9369286 0.2994774
vn -0.2051051 0.9494746 0.2375496
vn -0.0915224 0.8931313 0.4403862
vn -0.111214 0.9748779 0.1929885
vn 0 0.9859508 0.1670367
vn -0.09054831 0.9004507 0.4254286
vn -0.0508519 0.8099155 0.5843381
vn -0.06804765 0.9154729 0.3965842
vn -0.0894099 0.8125114 0.5760478
vn -0.02574942 0.8003711 0.5989517
vn 0.111213 0.9748784 0.1929867
vn 0.1343262 0.9776081 0.1619837
vn 0 0.9243198 0.3816188
vn -0.0274688 0.8211573 0.5700403
vn 0.002094088 0.8261628 0.5634276
vn -0.01508803 0.8590487 0.5116714
vn 0.1285406 0.9491744 0.2873068
vn 0.1404821 0.9497256 0.2797964
vn 0.2089062 0.9431332 0.258569
vn 0.1802176 0.9369274 0.2994807
vn 0.08484352 0.9004712 0.42656
vn 0.06804584 0.915473 0.3965842
vn 0.0362978 0.83749 0.5452458
vn 0.02746812 0.8211573 0.5700405
vn -0.02737326 0.7924199 0.6093615
vn 0 0.8257735 0.5640019
vn 0.008981407 0.8072805 0.5900995
vn 0 0.8159359 0.5781424
vn -0.002487852 0.8491636 0.5281241
vn 0.02575161 0.8003709 0.5989516
vn 0.01509069 0.8590503 0.5116686
vn 0.001191577 0.859482 0.5111645
vn -0.005079504 0.887768 0.4602631
vn 0.001570604 0.8822671 0.4707465
vn -0.02451056 0.8945848 0.4462257
vn -0.02799744 0.8973293 0.4404729
vn -0.008982216 0.8072814 0.5900984
vn 0 0.8686239 0.4954719
vn 0 0.8990769 0.4377907
vn 0 0.9035254 0.4285344
vn -0.001193629 0.8594815 0.5111654
vn 0.01563653 0.8887977 0.4580328
vn 0.02799754 0.8973292 0.440473
vn -0.002623842 0.8594368 0.5112352
vn -0.00156787 0.8822652 0.4707503
vn 0.00558969 0.8787017 0.4773387
vn 0.1404821 0.9497256 0.2797964
vn 0.2089062 0.9431332 0.258569
vn 0.1445993 0.9462196 0.2894125
vn 0.1343262 0.9776081 0.1619837
vn 0 0.9588404 0.2839456
vn 5.913435E-05 0.9817734 0.1900551
vn 0.08484352 0.9004712 0.42656
vn 0.1802176 0.9369274 0.2994807
vn 0.1285406 0.9491744 0.2873068
vn 0.09152535 0.8931296 0.4403891
vn 0.0362978 0.83749 0.5452458
vn 0.05085428 0.8099152 0.5843382
vn -0.02737326 0.7924199 0.6093615
vn 0.02575161 0.8003709 0.5989516
g CorporealFlesh_Male_Naked_NeckCap_0
f 3/3/3 2/2/2 1/1/1
f 4/4/4 3/3/3 1/1/1
f 5/5/5 3/3/3 4/4/4
f 6/6/6 5/5/5 4/4/4
f 7/7/7 5/5/5 6/6/6
f 8/8/8 7/7/7 6/6/6
f 9/9/9 7/7/7 8/8/8
f 4/4/4 10/10/10 6/6/6
f 10/10/10 8/8/8 6/6/6
f 1/1/1 11/11/11 4/4/4
f 11/11/11 10/10/10 4/4/4
f 12/12/12 9/9/9 8/8/8
f 13/13/13 9/9/9 12/12/12
f 10/10/10 14/14/14 8/8/8
f 14/14/14 12/12/12 8/8/8
f 15/15/15 13/13/13 12/12/12
f 16/16/16 13/13/13 15/15/15
f 17/17/17 11/11/11 1/1/1
f 18/18/18 17/17/17 1/1/1
f 11/11/11 19/19/19 10/10/10
f 19/19/19 14/14/14 10/10/10
f 14/14/14 20/20/20 12/12/12
f 20/20/20 15/15/15 12/12/12
f 21/21/21 16/16/16 15/15/15
f 22/22/22 16/16/16 21/21/21
f 23/23/23 17/17/17 18/18/18
f 24/24/24 23/23/23 18/18/18
f 24/24/24 25/25/25 23/23/23
f 25/25/25 26/26/26 23/23/23
f 23/23/23 27/27/27 17/17/17
f 27/27/27 28/28/28 17/17/17
f 17/17/17 28/28/28 11/11/11
f 27/27/27 29/29/29 28/28/28
f 28/28/28 19/19/19 11/11/11
f 29/29/29 30/30/30 28/28/28
f 28/28/28 30/30/30 19/19/19
f 29/29/29 31/31/31 30/30/30
f 30/30/30 32/32/32 19/19/19
f 19/19/19 32/32/32 14/14/14
f 32/32/32 20/20/20 14/14/14
f 31/31/31 33/33/33 30/30/30
f 30/30/30 33/33/33 32/32/32
f 32/32/32 34/34/34 20/20/20
f 33/33/33 34/34/34 32/32/32
f 31/31/31 35/35/35 33/33/33
f 31/31/31 36/36/36 35/35/35
f 36/36/36 37/37/37 35/35/35
f 35/35/35 38/38/38 33/33/33
f 33/33/33 38/38/38 34/34/34
f 35/35/35 37/37/37 39/39/39
f 35/35/35 39/39/39 38/38/38
f 37/37/37 40/40/40 39/39/39
f 39/39/39 40/40/40 41/41/41
f 39/39/39 41/41/41 38/38/38
f 40/40/40 42/42/42 41/41/41
f 34/34/34 43/43/43 20/20/20
f 20/20/20 43/43/43 15/15/15
f 43/43/43 21/21/21 15/15/15
f 38/38/38 44/44/44 34/34/34
f 38/38/38 41/41/41 44/44/44
f 34/34/34 44/44/44 43/43/43
f 41/41/41 42/42/42 45/45/45
f 41/41/41 45/45/45 44/44/44
f 42/42/42 46/46/46 45/45/45
f 44/44/44 47/47/47 43/43/43
f 43/43/43 47/47/47 21/21/21
f 44/44/44 45/45/45 47/47/47
f 45/45/45 46/46/46 48/48/48
f 45/45/45 48/48/48 47/47/47
f 46/46/46 49/49/49 48/48/48
f 47/47/47 50/50/50 21/21/21
f 47/47/47 48/48/48 50/50/50
f 50/50/50 22/22/22 21/21/21
f 51/51/51 22/22/22 50/50/50
f 49/49/49 51/51/51 52/52/52
f 48/48/48 49/49/49 52/52/52
f 52/52/52 51/51/51 50/50/50
f 48/48/48 52/52/52 50/50/50
f 55/55/55 54/54/54 53/53/53
f 56/56/56 55/55/55 53/53/53
f 57/57/57 55/55/55 56/56/56
f 58/58/58 57/57/57 56/56/56
f 61/61/61 60/60/60 59/59/59
f 60/60/60 62/62/62 59/59/59
f 59/59/59 62/62/62 63/63/63
f 62/62/62 64/64/64 63/63/63
f 63/63/63 64/64/64 65/65/65
f 64/64/64 66/66/66 65/65/65
