g Teeth top
v 0.03513157 1.58865 0.007567254
v 0.03761971 1.587829 -0.009510321
v 0.0369699 1.577785 -0.008278788
v 0.03464507 1.578602 0.008098765
v 0.03632824 1.568766 -0.008204986
v 0.02944086 1.577037 0.02466167
v 0.02925274 1.589258 0.02421793
v 0.02039168 1.585534 0.03714015
v 0.02182494 1.576141 0.03725548
v 0.02880491 1.568702 0.02501977
v 0.02144997 1.567468 0.03745455
v 0.03296294 1.568491 0.008566902
v 0.03166946 1.562704 0.008476915
v 0.03485164 1.562494 -0.008158503
v 0.02788984 1.562996 0.02479793
v 0.02355739 1.561052 0.03517265
v 0.02444055 1.562729 0.007032734
v 0.02693831 1.562636 -0.009316741
v 0.0221328 1.567745 0.006720417
v 0.02530261 1.567932 -0.009922602
v 0.02434041 1.572803 -0.009845039
v 0.02151469 1.563012 0.02253222
v 0.02070476 1.572097 0.007021709
v 0.009856061 1.577358 0.006350039
v 0.02144713 1.575863 -0.0108446
v 0.01244507 1.578314 -0.0118575
v 0.01767955 1.572233 0.0197507
v 0.0188966 1.568117 0.02089057
v 0.01479317 1.572689 0.02860025
v 0.01600354 1.5678 0.02955425
v 0.01830018 1.561435 0.03173339
v 0.01912738 1.561275 0.03978362
v 0.02144997 1.567468 0.03745455
v 0.01539783 1.561285 0.0352587
v -0.0004264582 1.579723 0.005585693
v -0.0004264582 1.580562 -0.01215409
v -0.01329799 1.578314 -0.0118575
v -0.01070898 1.577358 0.006350039
v -0.02230004 1.575863 -0.0108446
v -0.02519333 1.572803 -0.009845039
v -0.0004264582 1.578684 0.01625406
v 0.01328135 1.567692 0.03320451
v 0.008078887 1.577075 0.01718111
v -0.0004264582 1.575481 0.02681752
v -0.008931804 1.577075 0.01718111
v 0.006702733 1.575229 0.02696257
v -0.02155767 1.572097 0.007021709
v -0.02298571 1.567745 0.006720417
v -0.02615552 1.567932 -0.009922602
v -0.02779123 1.562636 -0.009316741
v -0.01853247 1.572233 0.0197507
v -0.01564608 1.572689 0.02860025
v -0.00755565 1.575229 0.02696257
v -0.0004264582 1.571799 0.03708724
v 0.006964661 1.572724 0.03500309
v -0.007817578 1.572724 0.03500309
v 0.01204404 1.572796 0.03243598
v -0.0004264582 1.567154 0.03773542
v 0.008028805 1.567506 0.03564135
v -0.01974952 1.568117 0.02089057
v -0.0004264582 1.560611 0.03984317
v 0.008639134 1.560656 0.03792172
v 0.0106694 1.560071 0.0435495
v -0.008881722 1.567506 0.03564135
v -0.0004264582 1.559947 0.04533358
v 0.01114377 1.565907 0.04448458
v -0.00949205 1.560656 0.03792172
v -0.0004264582 1.565376 0.04675464
v 0.01068098 1.574986 0.04456385
v 0.02182494 1.576141 0.03725548
v -0.01152232 1.560071 0.0435495
v -0.01625075 1.561285 0.0352587
v -0.01413427 1.567692 0.03320451
v -0.0004264582 1.574225 0.04668666
v 0.009411437 1.583913 0.04355672
v 0.02039168 1.585534 0.03714015
v -0.0004264582 1.58292 0.04538799
v -0.01199669 1.565907 0.04448458
v -0.01153389 1.574986 0.04456385
v -0.01026435 1.583913 0.04355672
v -0.02267786 1.576141 0.03725548
v -0.0212446 1.585534 0.03714015
v -0.02230289 1.567468 0.03745455
v -0.0199803 1.561275 0.03978362
v -0.02441031 1.561052 0.03517265
v -0.0191531 1.561435 0.03173339
v -0.01685645 1.5678 0.02955425
v -0.02236761 1.563012 0.02253222
v -0.02874276 1.562996 0.02479793
v -0.02230289 1.567468 0.03745455
v -0.02965783 1.568702 0.02501977
v -0.02267786 1.576141 0.03725548
v -0.03029377 1.577037 0.02466167
v -0.0212446 1.585534 0.03714015
v -0.03010566 1.589258 0.02421793
v -0.03598449 1.58865 0.007567254
v -0.03549799 1.578602 0.008098765
v -0.03782282 1.577785 -0.008278788
v -0.03847263 1.587829 -0.009510321
v -0.03718116 1.568766 -0.008204986
v -0.03381586 1.568491 0.008566902
v -0.03252238 1.562704 0.008476915
v -0.03570456 1.562494 -0.008158503
v -0.02529346 1.562729 0.007032734
v -0.01289696 1.572796 0.03243598
vt 0.2658457 0.0765633
vt 0.1535532 0.02824318
vt 0.1307953 0.09609273
vt 0.2380406 0.1418779
vt 0.1040857 0.1540643
vt 0.3415591 0.2083721
vt 0.3795989 0.130269
vt 0.4669837 0.2054426
vt 0.4313031 0.2632193
vt 0.3175148 0.2625301
vt 0.4044732 0.31921
vt 0.2110582 0.2083222
vt 0.1937001 0.2457073
vt 0.08649255 0.1958196
vt 0.2985724 0.299051
vt 0.3634823 0.3496938
vt 0.1720931 0.2910454
vt 0.06550218 0.2478816
vt 0.1578698 0.325994
vt 0.04888098 0.2831439
vt 0.03756796 0.3159241
vt 0.2713461 0.3389325
vt 0.1495186 0.3558588
vt 0.1323147 0.4327855
vt 0.02426943 0.3429443
vt 0.01087406 0.4074718
vt 0.2259616 0.3915616
vt 0.2443394 0.3697565
vt 0.2697231 0.4218666
vt 0.2910573 0.4032735
vt 0.329163 0.3776287
vt 0.3812655 0.388559
vt 0.4141394 0.3554862
vt 0.3463198 0.4033975
vt 0.1241361 0.5
vt 0.004213184 0.5000001
vt 0.01087409 0.5925283
vt 0.1323147 0.5672147
vt 0.02426943 0.6570557
vt 0.03756796 0.684076
vt 0.1883544 0.5
vt 0.3074844 0.4244132
vt 0.1978531 0.450951
vt 0.2483067 0.5000001
vt 0.1978531 0.5490491
vt 0.2513354 0.4626523
vt 0.1495186 0.6441413
vt 0.1578699 0.674006
vt 0.04888102 0.7168561
vt 0.06550218 0.7521185
vt 0.2259616 0.6084386
vt 0.2697231 0.5781335
vt 0.2513353 0.5373477
vt 0.3029925 0.5
vt 0.2929405 0.4653007
vt 0.2929405 0.5346993
vt 0.2843956 0.4402019
vt 0.3260683 0.5
vt 0.3186348 0.4547608
vt 0.2443394 0.6302435
vt 0.3629665 0.5
vt 0.3577338 0.4478765
vt 0.3892609 0.4414654
vt 0.3186348 0.5452393
vt 0.3937076 0.5
vt 0.4217874 0.4344263
vt 0.3577338 0.5521236
vt 0.4244081 0.5
vt 0.4760221 0.4303727
vt 0.4722055 0.3437214
vt 0.3892609 0.5585346
vt 0.3463198 0.5966026
vt 0.3074844 0.5755869
vt 0.4755464 0.5
vt 0.5352619 0.4305791
vt 0.5361457 0.3442557
vt 0.5333557 0.5
vt 0.4217874 0.5655738
vt 0.4760221 0.5696275
vt 0.5352619 0.5694211
vt 0.4722055 0.6562787
vt 0.5361457 0.6557444
vt 0.4141394 0.644514
vt 0.3812655 0.6114411
vt 0.3634822 0.6503063
vt 0.3291631 0.6223714
vt 0.2910573 0.5967265
vt 0.2713461 0.6610676
vt 0.2985723 0.700949
vt 0.4044732 0.6807901
vt 0.3175149 0.7374699
vt 0.431303 0.7367808
vt 0.3415591 0.791628
vt 0.4669837 0.7945575
vt 0.3795989 0.869731
vt 0.2658458 0.9234367
vt 0.2380406 0.8581222
vt 0.1307952 0.9039074
vt 0.1535532 0.9717568
vt 0.1040857 0.8459358
vt 0.2110582 0.7916778
vt 0.1937001 0.7542928
vt 0.08649257 0.8041804
vt 0.1720931 0.7089547
vt 0.2843955 0.5597982
vn 0.9729039 -0.02144056 0.2302137
vn 0.9885833 -0.04324256 0.1443364
vn 0.9844935 -0.07819103 0.1570314
vn 0.9719657 -0.06368425 0.2263337
vn 0.9698738 -0.1657715 0.1785065
vn 0.910083 -0.01738983 0.4140611
vn 0.9033311 0.03594728 0.427435
vn 0.6959985 0.1033687 0.7105638
vn 0.7152056 0.04481306 0.6974759
vn 0.9236378 -0.08558989 0.3735873
vn 0.7248366 -0.01098714 0.6888331
vn 0.9634027 -0.1588484 0.2159219
vn 0.6151447 -0.775036 0.1446243
vn 0.6235869 -0.7712287 0.1278496
vn 0.6786055 -0.7049023 0.2064156
vn 0.6200524 -0.7062175 0.3417483
vn -0.5327844 -0.8414568 -0.08995155
vn -0.5693049 -0.8168494 -0.09300144
vn -0.9204835 -0.3441867 -0.1850555
vn -0.9362977 -0.3018211 -0.1795846
vn -0.7414848 -0.6412147 -0.1975958
vn -0.4796919 -0.8562518 -0.1916471
vn -0.7465239 -0.6395131 -0.183644
vn -0.3101268 -0.9456322 -0.09798423
vn -0.4052248 -0.9003261 -0.1587631
vn -0.3053273 -0.9454532 -0.11355
vn -0.7221577 -0.6609793 -0.2039472
vn -0.8868703 -0.387432 -0.2517094
vn -0.6504074 -0.6733989 -0.3514317
vn -0.8109302 -0.3814749 -0.4436994
vn -0.3907779 -0.869277 -0.3027379
vn 0.4610249 -0.6635031 0.5892535
vn 0.7248366 -0.01098714 0.6888331
vn -0.2656933 -0.8654152 -0.4248102
vn 0 -0.9975017 -0.07064227
vn 0 -0.9979522 -0.06396381
vn 0.3053273 -0.945453 -0.1135511
vn 0.310127 -0.9456326 -0.09798189
vn 0.4052248 -0.9003261 -0.1587631
vn 0.7414848 -0.6412146 -0.1975958
vn 0 -0.9877221 -0.1562216
vn -0.5795098 -0.3364306 -0.7422822
vn -0.271809 -0.9519189 -0.1413164
vn 0 -0.95906 -0.2832031
vn 0.2718092 -0.9519192 -0.1413136
vn -0.1613144 -0.9574428 -0.2393345
vn 0.7465237 -0.6395133 -0.1836438
vn 0.9204835 -0.3441868 -0.1850557
vn 0.9362978 -0.3018211 -0.1795846
vn 0.5693043 -0.8168489 -0.09300779
vn 0.7221577 -0.6609799 -0.2039457
vn 0.6504076 -0.6734 -0.3514291
vn 0.1613145 -0.9574433 -0.2393321
vn 0 -0.5792765 -0.8151311
vn -0.2375254 -0.6577337 -0.7148203
vn 0.2375249 -0.657735 -0.7148192
vn -0.4754489 -0.6556517 -0.5865741
vn 0 -0.2437917 -0.9698276
vn -0.3095817 -0.2627772 -0.9138421
vn 0.88687 -0.387432 -0.2517103
vn 0 -0.8156139 -0.5785965
vn -0.1349085 -0.807277 -0.5745464
vn 0.2617119 -0.7606385 0.5940842
vn 0.3095815 -0.2627775 -0.913842
vn 0 -0.7819218 0.6233765
vn 0.3661695 -0.05200887 0.9290937
vn 0.1349093 -0.8072782 -0.5745447
vn 0 -0.1060283 0.9943631
vn 0.3670083 0.07040773 0.9275492
vn 0.7152056 0.04481306 0.6974759
vn -0.2617112 -0.760638 0.5940852
vn 0.2656929 -0.8654149 -0.4248111
vn 0.5795084 -0.3364301 -0.7422836
vn 0 0.06992408 0.9975523
vn 0.3496962 0.1359066 0.926953
vn 0.6959985 0.1033687 0.7105638
vn 0 0.1421216 0.9898492
vn -0.366169 -0.0520089 0.9290938
vn -0.367008 0.07040792 0.9275494
vn -0.3496957 0.1359068 0.9269533
vn -0.7152047 0.04481293 0.697477
vn -0.6959974 0.1033684 0.710565
vn -0.7248359 -0.01098699 0.6888341
vn -0.4610242 -0.6635032 0.5892541
vn -0.6200526 -0.7062177 0.3417475
vn 0.3907768 -0.8692759 -0.3027423
vn 0.8109288 -0.3814742 -0.4437025
vn 0.4796918 -0.8562515 -0.1916482
vn -0.6786057 -0.7049022 0.206415
vn -0.7248359 -0.01098699 0.6888341
vn -0.9236377 -0.08558981 0.3735877
vn -0.7152047 0.04481293 0.697477
vn -0.9100825 -0.01738994 0.4140622
vn -0.6959974 0.1033684 0.710565
vn -0.9033304 0.03594725 0.4274366
vn -0.9729035 -0.02144048 0.2302151
vn -0.9719657 -0.06368425 0.2263342
vn -0.9844936 -0.07819084 0.1570307
vn -0.9885833 -0.04324235 0.1443364
vn -0.9698739 -0.1657716 0.1785058
vn -0.963403 -0.1588484 0.2159211
vn -0.6151451 -0.7750363 0.1446214
vn -0.6235873 -0.7712296 0.1278429
vn 0.5327844 -0.8414566 -0.08995289
vn 0.4754492 -0.6556541 -0.5865712
g Teeth top_0
f 3/3/3 2/2/2 1/1/1
f 4/4/4 3/3/3 1/1/1
f 5/5/5 3/3/3 4/4/4
f 4/4/4 1/1/1 6/6/6
f 1/1/1 7/7/7 6/6/6
f 6/6/6 7/7/7 8/8/8
f 9/9/9 6/6/6 8/8/8
f 6/6/6 9/9/9 10/10/10
f 6/6/6 10/10/10 4/4/4
f 9/9/9 11/11/11 10/10/10
f 12/12/12 5/5/5 4/4/4
f 10/10/10 12/12/12 4/4/4
f 5/5/5 12/12/12 13/13/13
f 13/13/13 12/12/12 10/10/10
f 14/14/14 5/5/5 13/13/13
f 10/10/10 11/11/11 15/15/15
f 15/15/15 13/13/13 10/10/10
f 11/11/11 16/16/16 15/15/15
f 14/14/14 13/13/13 17/17/17
f 13/13/13 15/15/15 17/17/17
f 18/18/18 14/14/14 17/17/17
f 18/18/18 17/17/17 19/19/19
f 20/20/20 18/18/18 19/19/19
f 21/21/21 20/20/20 19/19/19
f 15/15/15 22/22/22 17/17/17
f 15/15/15 16/16/16 22/22/22
f 19/19/19 17/17/17 22/22/22
f 23/23/23 21/21/21 19/19/19
f 21/21/21 23/23/23 24/24/24
f 25/25/25 21/21/21 24/24/24
f 24/24/24 26/26/26 25/25/25
f 27/27/27 23/23/23 19/19/19
f 24/24/24 23/23/23 27/27/27
f 28/28/28 19/19/19 22/22/22
f 28/28/28 27/27/27 19/19/19
f 27/27/27 28/28/28 29/29/29
f 30/30/30 28/28/28 22/22/22
f 28/28/28 30/30/30 29/29/29
f 16/16/16 31/31/31 22/22/22
f 31/31/31 30/30/30 22/22/22
f 31/31/31 16/16/16 32/32/32
f 16/16/16 33/33/33 32/32/32
f 31/31/31 34/34/34 30/30/30
f 34/34/34 31/31/31 32/32/32
f 26/26/26 24/24/24 35/35/35
f 36/36/36 26/26/26 35/35/35
f 37/37/37 36/36/36 35/35/35
f 38/38/38 37/37/37 35/35/35
f 39/39/39 37/37/37 38/38/38
f 38/38/38 40/40/40 39/39/39
f 35/35/35 24/24/24 41/41/41
f 38/38/38 35/35/35 41/41/41
f 34/34/34 42/42/42 30/30/30
f 29/29/29 30/30/30 42/42/42
f 24/24/24 43/43/43 41/41/41
f 43/43/43 24/24/24 27/27/27
f 43/43/43 27/27/27 29/29/29
f 41/41/41 43/43/43 44/44/44
f 45/45/45 38/38/38 41/41/41
f 45/45/45 41/41/41 44/44/44
f 46/46/46 43/43/43 29/29/29
f 43/43/43 46/46/46 44/44/44
f 38/38/38 47/47/47 40/40/40
f 40/40/40 47/47/47 48/48/48
f 49/49/49 40/40/40 48/48/48
f 50/50/50 49/49/49 48/48/48
f 47/47/47 38/38/38 51/51/51
f 38/38/38 45/45/45 51/51/51
f 47/47/47 51/51/51 48/48/48
f 51/51/51 45/45/45 52/52/52
f 53/53/53 45/45/45 44/44/44
f 45/45/45 53/53/53 52/52/52
f 44/44/44 46/46/46 54/54/54
f 53/53/53 44/44/44 54/54/54
f 46/46/46 29/29/29 55/55/55
f 46/46/46 55/55/55 54/54/54
f 56/56/56 53/53/53 54/54/54
f 52/52/52 53/53/53 56/56/56
f 29/29/29 57/57/57 55/55/55
f 57/57/57 29/29/29 42/42/42
f 55/55/55 57/57/57 42/42/42
f 54/54/54 55/55/55 58/58/58
f 56/56/56 54/54/54 58/58/58
f 59/59/59 55/55/55 42/42/42
f 55/55/55 59/59/59 58/58/58
f 59/59/59 42/42/42 34/34/34
f 60/60/60 51/51/51 52/52/52
f 51/51/51 60/60/60 48/48/48
f 58/58/58 59/59/59 61/61/61
f 62/62/62 59/59/59 34/34/34
f 59/59/59 62/62/62 61/61/61
f 62/62/62 34/34/34 63/63/63
f 34/34/34 32/32/32 63/63/63
f 64/64/64 56/56/56 58/58/58
f 64/64/64 58/58/58 61/61/61
f 61/61/61 62/62/62 65/65/65
f 62/62/62 63/63/63 65/65/65
f 63/63/63 32/32/32 66/66/66
f 32/32/32 33/33/33 66/66/66
f 67/67/67 64/64/64 61/61/61
f 67/67/67 61/61/61 65/65/65
f 65/65/65 63/63/63 68/68/68
f 63/63/63 66/66/66 68/68/68
f 69/69/69 66/66/66 33/33/33
f 70/70/70 69/69/69 33/33/33
f 71/71/71 67/67/67 65/65/65
f 71/71/71 65/65/65 68/68/68
f 64/64/64 67/67/67 72/72/72
f 72/72/72 67/67/67 71/71/71
f 56/56/56 64/64/64 73/73/73
f 73/73/73 64/64/64 72/72/72
f 68/68/68 66/66/66 74/74/74
f 66/66/66 69/69/69 74/74/74
f 69/69/69 70/70/70 75/75/75
f 70/70/70 76/76/76 75/75/75
f 69/69/69 75/75/75 77/77/77
f 74/74/74 69/69/69 77/77/77
f 78/78/78 71/71/71 68/68/68
f 78/78/78 68/68/68 74/74/74
f 79/79/79 74/74/74 77/77/77
f 79/79/79 78/78/78 74/74/74
f 80/80/80 79/79/79 77/77/77
f 81/81/81 79/79/79 80/80/80
f 82/82/82 81/81/81 80/80/80
f 79/79/79 81/81/81 83/83/83
f 78/78/78 79/79/79 83/83/83
f 84/84/84 71/71/71 78/78/78
f 83/83/83 84/84/84 78/78/78
f 84/84/84 72/72/72 71/71/71
f 83/83/83 85/85/85 84/84/84
f 86/86/86 72/72/72 84/84/84
f 85/85/85 86/86/86 84/84/84
f 72/72/72 86/86/86 87/87/87
f 73/73/73 72/72/72 87/87/87
f 86/86/86 85/85/85 88/88/88
f 87/87/87 86/86/86 88/88/88
f 85/85/85 89/89/89 88/88/88
f 85/85/85 90/90/90 89/89/89
f 90/90/90 91/91/91 89/89/89
f 90/90/90 92/92/92 91/91/91
f 92/92/92 93/93/93 91/91/91
f 93/93/93 92/92/92 94/94/94
f 95/95/95 93/93/93 94/94/94
f 95/95/95 96/96/96 93/93/93
f 96/96/96 97/97/97 93/93/93
f 91/91/91 93/93/93 97/97/97
f 98/98/98 97/97/97 96/96/96
f 99/99/99 98/98/98 96/96/96
f 98/98/98 100/100/100 97/97/97
f 101/101/101 91/91/91 97/97/97
f 100/100/100 101/101/101 97/97/97
f 101/101/101 102/102/102 91/91/91
f 101/101/101 100/100/100 102/102/102
f 102/102/102 89/89/89 91/91/91
f 100/100/100 103/103/103 102/102/102
f 89/89/89 102/102/102 104/104/104
f 102/102/102 103/103/103 104/104/104
f 103/103/103 50/50/50 104/104/104
f 104/104/104 50/50/50 48/48/48
f 88/88/88 89/89/89 104/104/104
f 104/104/104 48/48/48 88/88/88
f 48/48/48 60/60/60 88/88/88
f 60/60/60 87/87/87 88/88/88
f 87/87/87 60/60/60 52/52/52
f 87/87/87 52/52/52 73/73/73
f 52/52/52 105/105/105 73/73/73
f 105/105/105 56/56/56 73/73/73
f 105/105/105 52/52/52 56/56/56
