g NewTrainingset_Male_Naked_Torso
v 0.08172654 1.488166 -0.07303045
v 0.07274728 1.492542 -0.09130489
v 0.08885477 1.483623 -0.09697989
v 0.09866522 1.48132 -0.07692102
v 0.1030869 1.475612 -0.09937349
v 0.101804 1.470183 -0.06102142
v 0.08392768 1.47617 -0.05729628
v 0.09584598 1.455836 -0.04224205
v 0.07885872 1.457413 -0.03936408
v 0.08847032 1.451277 -0.03325498
v 0.07624404 1.450359 -0.0245275
v 0.1097688 1.456728 -0.04086341
v 0.09809689 1.448336 -0.02914169
v 0.09007834 1.439221 -0.009795276
v 0.115556 1.470308 -0.05986993
v 0.1121487 1.476928 -0.07798982
v 0.126981 1.473144 -0.07752293
v 0.1231553 1.469548 -0.09580265
v 0.1314311 1.47123 -0.06053996
v 0.1271138 1.465493 -0.04181762
v 0.11418 1.453992 -0.02626124
v 0.1096622 1.443295 -0.01729378
v 0.1338262 1.428766 -0.003339849
v 0.1291109 1.41777 0.003406089
v 0.09221528 1.42095 0.01128441
v 0.1768629 1.420394 -0.0002137538
v 0.1256769 1.405798 0.0155323
v 0.09508138 1.399781 0.03151447
v 0.1642194 1.400303 0.001429301
v 0.1901973 1.409591 -0.006264802
v 0.1764806 1.39502 -0.0133677
v 0.1531957 1.380309 0.01022613
v 0.1675264 1.378255 -0.02348912
v 0.1195605 1.397535 0.0262956
v 0.1345547 1.377334 0.03012862
v 0.1004352 1.379308 0.04515105
v 0.1311143 1.351711 0.04219196
v 0.1039047 1.355663 0.0547188
v 0.1439281 1.349186 0.01578989
v 0.1498098 1.337958 -0.01029366
v 0.1779971 1.367057 -0.03743121
v 0.1688755 1.334216 -0.03609785
v 0.08885477 1.483623 -0.09697989
v 0.07720129 1.479706 -0.1100214
v 0.07841228 1.465106 -0.1207776
v 0.1030869 1.475612 -0.09937349
v 0.08022504 1.444332 -0.1279431
v 0.1084302 1.449969 -0.1214014
v 0.1231553 1.469548 -0.09580265
v 0.1241219 1.458543 -0.1143897
v 0.1037369 1.436048 -0.1308855
v 0.09030734 1.430283 -0.1338221
v 0.1124254 1.418428 -0.1359411
v 0.1284638 1.431806 -0.1278101
v 0.1375716 1.441885 -0.1241369
v 0.1336164 1.400071 -0.1360407
v 0.1605546 1.410569 -0.1218233
v 0.1575916 1.428848 -0.128679
v 0.1456939 1.375651 -0.1309555
v 0.1635365 1.381498 -0.1196436
v 0.174364 1.36345 -0.1056482
v 0.1519886 1.358821 -0.1244421
v 0.1532046 1.343736 -0.121912
v 0.1665487 1.340777 -0.1065566
v 0.1853508 1.339653 -0.08186743
v 0.164171 1.319364 -0.1059561
v 0.1783741 1.311304 -0.08953889
v 0.188229 1.357236 -0.07756893
v 0.1741968 1.305177 -0.06384588
v 0.1848237 1.33529 -0.05516949
v 0.1647577 1.300998 -0.04014021
v 0.1878034 1.36093 -0.05346492
v 0.1688755 1.334216 -0.03609785
v 0.1779971 1.367057 -0.03743121
v -0.08172655 1.488166 -0.07303045
v -0.08885479 1.483623 -0.09697989
v -0.07274729 1.492542 -0.09130489
v -0.09866524 1.48132 -0.07692102
v -0.1030869 1.475612 -0.09937349
v -0.101804 1.470183 -0.06102142
v -0.08392769 1.47617 -0.05729628
v -0.095846 1.455836 -0.04224205
v -0.07885873 1.457413 -0.03936408
v -0.08847034 1.451277 -0.03325498
v -0.07624406 1.450359 -0.0245275
v -0.1097688 1.456728 -0.04086341
v -0.09809691 1.448336 -0.02914169
v -0.09007835 1.439221 -0.009795276
v -0.115556 1.470308 -0.05986993
v -0.1121487 1.476928 -0.07798982
v -0.126981 1.473144 -0.07752293
v -0.1231554 1.469548 -0.09580265
v -0.1314312 1.47123 -0.06053996
v -0.1271139 1.465493 -0.04181762
v -0.11418 1.453992 -0.02626125
v -0.1096622 1.443295 -0.01729378
v -0.1338262 1.428766 -0.00333985
v -0.1291109 1.41777 0.003406088
v -0.0922153 1.42095 0.01128441
v -0.1768629 1.420394 -0.0002137541
v -0.1256769 1.405798 0.0155323
v -0.09508139 1.399781 0.03151446
v -0.1642194 1.400303 0.0014293
v -0.1901973 1.409591 -0.006264802
v -0.1764806 1.39502 -0.0133677
v -0.1531957 1.380309 0.01022613
v -0.1675264 1.378255 -0.02348912
v -0.1195605 1.397535 0.0262956
v -0.1345547 1.377334 0.03012862
v -0.1004352 1.379308 0.04515105
v -0.1311144 1.351711 0.04219196
v -0.1039047 1.355663 0.0547188
v -0.1439281 1.349186 0.01578989
v -0.1498098 1.337958 -0.01029366
v -0.1779971 1.367057 -0.03743121
v -0.1688755 1.334216 -0.03609785
v -0.08885479 1.483623 -0.09697989
v -0.07841229 1.465106 -0.1207776
v -0.07720131 1.479706 -0.1100214
v -0.1030869 1.475612 -0.09937349
v -0.08022505 1.444332 -0.1279431
v -0.1084302 1.449969 -0.1214014
v -0.1231554 1.469548 -0.09580265
v -0.1241219 1.458543 -0.1143897
v -0.1037369 1.436048 -0.1308855
v -0.09030735 1.430283 -0.1338221
v -0.1124254 1.418428 -0.1359411
v -0.1284638 1.431806 -0.1278101
v -0.1375716 1.441885 -0.1241369
v -0.1336164 1.400071 -0.1360407
v -0.1605546 1.410569 -0.1218233
v -0.1575916 1.428848 -0.128679
v -0.145694 1.375651 -0.1309555
v -0.1635365 1.381498 -0.1196436
v -0.174364 1.36345 -0.1056482
v -0.1519886 1.358821 -0.1244421
v -0.1532046 1.343736 -0.121912
v -0.1665487 1.340777 -0.1065566
v -0.1853508 1.339653 -0.08186743
v -0.164171 1.319364 -0.1059561
v -0.1783741 1.311304 -0.08953889
v -0.188229 1.357236 -0.07756893
v -0.1741968 1.305177 -0.06384588
v -0.1848237 1.33529 -0.05516949
v -0.1647577 1.300998 -0.04014021
v -0.1878034 1.36093 -0.05346492
v -0.1688755 1.334216 -0.03609785
v -0.1779971 1.367057 -0.03743121
vt 0.08786598 0.7700913
vt 0.07418564 0.7669308
vt 0.07585377 0.7822118
vt 0.09079075 0.7859319
vt 0.07832177 0.7950931
vt 0.1038612 0.7863081
vt 0.101002 0.7703725
vt 0.1184965 0.7802816
vt 0.1173925 0.7661133
vt 0.1240336 0.7739576
vt 0.1273662 0.7623602
vt 0.1205846 0.7904739
vt 0.1284661 0.7813576
vt 0.1407689 0.77131
vt 0.1064229 0.7968148
vt 0.09354593 0.7969663
vt 0.09665127 0.8073065
vt 0.08474661 0.8088308
vt 0.1077953 0.8081172
vt 0.1196123 0.8035098
vt 0.1302324 0.7933844
vt 0.1378592 0.7876652
vt 0.1519161 0.798552
vt 0.1599413 0.7929687
vt 0.1579812 0.7662485
vt 0.156512 0.8220657
vt 0.1702882 0.7862851
vt 0.1760176 0.7631346
vt 0.1716661 0.8143705
vt 0.1621648 0.831046
vt 0.1752963 0.8274044
vt 0.1866741 0.8046918
vt 0.1888564 0.8291287
vt 0.1776087 0.7789553
vt 0.1912035 0.7869811
vt 0.1911102 0.7642732
vt 0.2077774 0.7820252
vt 0.2061527 0.7645401
vt 0.2076328 0.7999485
vt 0.2148541 0.8171223
vt 0.1954561 0.8403997
vt 0.2166733 0.8369186
vt 0.5606182 0.7705911
vt 0.5739742 0.7686462
vt 0.5780007 0.7579417
vt 0.5515341 0.7608942
vt 0.5830469 0.7450907
vt 0.5598953 0.7406188
vt 0.5378574 0.7536219
vt 0.5451753 0.7417463
vt 0.5701432 0.733471
vt 0.5812331 0.733933
vt 0.5714651 0.7214339
vt 0.5550686 0.7246166
vt 0.5452772 0.7281049
vt 0.5647818 0.7058992
vt 0.5442057 0.7046931
vt 0.5394709 0.7162265
vt 0.5633374 0.6886846
vt 0.5495864 0.6867108
vt 0.5447283 0.6711969
vt 0.5627055 0.6767496
vt 0.5655068 0.6675678
vt 0.5550972 0.6600237
vt 0.5386902 0.649598
vt 0.5620568 0.6486712
vt 0.5531077 0.6380364
vt 0.5298749 0.6571341
vt 0.5422426 0.6243506
vt 0.5270067 0.6374544
vt 0.531742 0.6110129
vt 0.5161905 0.6496606
vt 0.5162431 0.6259459
vt 0.5046541 0.6444722
vt 0.08292174 0.6470015
vt 0.06997631 0.6358837
vt 0.06953908 0.6512494
vt 0.08456647 0.6309775
vt 0.07140301 0.622846
vt 0.09756488 0.6295542
vt 0.09599292 0.6456679
vt 0.1126361 0.6343867
vt 0.1126722 0.6485987
vt 0.1186626 0.6402466
vt 0.1229148 0.651538
vt 0.1138998 0.6240589
vt 0.1224873 0.6325151
vt 0.1355561 0.6415433
vt 0.09927531 0.618877
vt 0.08642775 0.6197582
vt 0.08869392 0.6092018
vt 0.07670526 0.6086373
vt 0.09973694 0.6074998
vt 0.1118852 0.6111442
vt 0.1232831 0.6203853
vt 0.1313441 0.6254747
vt 0.1444824 0.6134948
vt 0.1529295 0.6184161
vt 0.1531192 0.6452081
vt 0.1471776 0.5896889
vt 0.1637794 0.6242492
vt 0.1713471 0.6468658
vt 0.1629002 0.5961436
vt 0.1520917 0.5802839
vt 0.1654729 0.5828589
vt 0.178636 0.6045876
vt 0.1788513 0.580054
vt 0.1716638 0.630967
vt 0.1845714 0.6218777
vt 0.1862996 0.6445199
vt 0.2014894 0.6254883
vt 0.2012725 0.6430472
vt 0.1999075 0.6076345
vt 0.205728 0.589936
vt 0.1845255 0.5682889
vt 0.2059535 0.5700582
vt 0.6779604 0.8188952
vt 0.6745204 0.7976741
vt 0.6698439 0.8081108
vt 0.6912384 0.8184032
vt 0.6799833 0.7849952
vt 0.6995751 0.7981171
vt 0.706071 0.8228669
vt 0.7092347 0.8092812
vt 0.6973281 0.7858268
vt 0.6891277 0.7783477
vt 0.7048631 0.7763464
vt 0.7142684 0.7901506
vt 0.7187653 0.7995213
vt 0.7205459 0.7700195
vt 0.7360074 0.783648
vt 0.7312518 0.795173
vt 0.7336915 0.7588109
vt 0.7448478 0.7670902
vt 0.7592186 0.7594922
vt 0.742543 0.7507796
vt 0.747017 0.7422864
vt 0.759721 0.7442573
vt 0.778712 0.7484029
vt 0.7627692 0.731294
vt 0.7766128 0.730042
vt 0.7796679 0.7599614
vt 0.7939646 0.7279721
vt 0.7955604 0.7480048
vt 0.8108109 0.7258918
vt 0.7946464 0.764287
vt 0.811306 0.7474084
vt 0.8064937 0.7687246
vn 0.4114422 0.8754827 0.2534668
vn 0.332483 0.9140262 -0.232403
vn 0.3836889 0.8448481 -0.3728465
vn 0.3634146 0.9141572 0.1795732
vn 0.3122472 0.8119251 -0.4932335
vn 0.1672991 0.8136886 0.5567062
vn 0.3866587 0.7033798 0.5964494
vn 0.08213923 0.8065475 0.5854353
vn 0.3213661 0.7068686 0.6301275
vn 0.1449797 0.8633128 0.4833962
vn 0.2100051 0.8187325 0.5343921
vn -0.2313966 0.8750903 0.425056
vn -0.07161591 0.8808827 0.4678855
vn 0.1056747 0.7942137 0.5983791
vn -0.03729532 0.9143244 0.4032617
vn 0.2370703 0.9687326 0.07317678
vn -0.08324225 0.9965138 -0.005563478
vn -0.00744167 0.9119003 -0.4103444
vn -0.2761899 0.9360631 0.2179564
vn -0.3892884 0.8810926 0.2685708
vn -0.3873946 0.8128125 0.4350415
vn -0.1712704 0.6980131 0.6953015
vn -0.06416682 0.3667401 0.9281079
vn 0.177609 0.522909 0.8336793
vn 0.1853129 0.7132468 0.6759719
vn 0.09291245 -0.0903556 0.9915661
vn 0.3550118 0.5796715 0.733449
vn 0.2037789 0.6207829 0.7570356
vn 0.4701835 -0.08073705 0.878868
vn 0.1144751 -0.3971761 0.910575
vn 0.3521106 -0.4990656 0.7918028
vn 0.7642808 0.1071377 0.6359215
vn 0.6468722 -0.4188903 0.6372497
vn 0.3660588 0.5795065 0.7281299
vn 0.5678351 0.369151 0.7357247
vn 0.2681427 0.470941 0.8404249
vn 0.6178119 0.2011607 0.7601598
vn 0.3443876 0.3504566 0.8709635
vn 0.8746105 -0.01378296 0.4846301
vn 0.9210482 -0.08911815 0.3791148
vn 0.5624856 -0.538987 0.6269792
vn 0.848548 -0.1438259 0.5091959
vn 0.3836889 0.8448481 -0.3728465
vn 0.2611683 0.6894179 -0.6756435
vn 0.1982781 0.5177342 -0.8322482
vn 0.3122472 0.8119251 -0.4932335
vn 0.1002128 0.3922888 -0.914367
vn 0.1480783 0.5382817 -0.8296539
vn -0.00744167 0.9119003 -0.4103444
vn -0.03827276 0.660409 -0.7499301
vn 0.1034092 0.4080089 -0.9071027
vn 0.001804948 0.3274931 -0.9448518
vn 0.1576662 0.3042456 -0.9394552
vn 0.1442662 0.2850701 -0.9475875
vn -0.08687194 0.254513 -0.9631596
vn 0.3505062 0.149124 -0.924612
vn 0.06039348 -0.0262077 -0.9978306
vn -0.06417932 -0.07028512 -0.9954602
vn 0.4887757 -0.03541572 -0.8716903
vn 0.1983467 -0.2240239 -0.9541864
vn 0.486355 -0.5437399 -0.6839632
vn 0.5975417 -0.09695457 -0.7959545
vn 0.6554391 -0.02589725 -0.7548039
vn 0.7646204 -0.08260485 -0.639165
vn 0.9400375 -0.1394827 -0.3112459
vn 0.8206037 -0.03431236 -0.5704667
vn 0.9167969 -0.1129215 -0.3830564
vn 0.7102224 -0.6870826 -0.1533023
vn 0.9587778 -0.2033655 0.1984629
vn 0.9326521 -0.178445 0.3135562
vn 0.9008047 -0.1455695 0.4090972
vn 0.6571699 -0.6651149 0.3546121
vn 0.848548 -0.1438259 0.5091959
vn 0.5624856 -0.538987 0.6269792
vn -0.411442 0.8754822 0.2534685
vn -0.3836878 0.8448498 -0.372844
vn -0.3324605 0.9140238 -0.2324445
vn -0.3634146 0.914157 0.1795742
vn -0.3122475 0.8119259 -0.493232
vn -0.1672992 0.8136886 0.5567062
vn -0.3866586 0.7033796 0.5964497
vn -0.08213928 0.8065473 0.5854355
vn -0.3213662 0.7068697 0.6301263
vn -0.1449798 0.8633134 0.4833953
vn -0.2099949 0.8187336 0.5343945
vn 0.2313959 0.8750889 0.4250593
vn 0.0716157 0.8808821 0.4678865
vn -0.1056747 0.7942135 0.5983793
vn 0.03729504 0.9143245 0.4032613
vn -0.2370702 0.9687327 0.07317664
vn 0.08324243 0.9965138 -0.005564071
vn 0.007441491 0.9119012 -0.4103425
vn 0.2761833 0.936069 0.2179399
vn 0.3892878 0.881092 0.268574
vn 0.3873936 0.812811 0.4350453
vn 0.1712705 0.698013 0.6953015
vn 0.06416672 0.3667405 0.9281079
vn -0.1776092 0.5229091 0.8336793
vn -0.1853127 0.7132462 0.6759726
vn -0.09291194 -0.09035493 0.9915661
vn -0.3550124 0.5796717 0.7334486
vn -0.2037784 0.620782 0.7570364
vn -0.470183 -0.08073694 0.8788683
vn -0.1144736 -0.3971757 0.9105753
vn -0.3521104 -0.4990665 0.7918022
vn -0.7642776 0.1071371 0.6359257
vn -0.6468726 -0.4188907 0.6372491
vn -0.3660593 0.5795066 0.7281297
vn -0.5678356 0.3691512 0.7357242
vn -0.2681417 0.4709392 0.8404263
vn -0.617795 0.201213 0.7601596
vn -0.3443867 0.3504559 0.8709641
vn -0.8746105 -0.013783 0.4846302
vn -0.9210482 -0.08911803 0.3791148
vn -0.5624856 -0.5389869 0.6269792
vn -0.848548 -0.1438258 0.5091959
vn -0.3836878 0.8448498 -0.372844
vn -0.1982783 0.5177347 -0.8322477
vn -0.2611685 0.689418 -0.6756434
vn -0.3122475 0.8119259 -0.493232
vn -0.100213 0.3922893 -0.9143667
vn -0.1480785 0.5382822 -0.8296536
vn 0.007441491 0.9119012 -0.4103425
vn 0.03827241 0.6604094 -0.7499298
vn -0.1034093 0.4080093 -0.9071025
vn -0.001804728 0.3274933 -0.9448518
vn -0.1577053 0.3042668 -0.9394416
vn -0.1442653 0.2850692 -0.9475881
vn 0.08687232 0.2545128 -0.9631596
vn -0.3505048 0.1491228 -0.9246128
vn -0.06043569 -0.02619232 -0.9978283
vn 0.06418011 -0.0702857 -0.9954601
vn -0.4887757 -0.03541432 -0.8716904
vn -0.1983463 -0.224024 -0.9541866
vn -0.486355 -0.5437402 -0.6839629
vn -0.5975455 -0.09694835 -0.7959525
vn -0.6554393 -0.02589733 -0.7548038
vn -0.7646206 -0.08260495 -0.6391649
vn -0.9400378 -0.1394827 -0.3112451
vn -0.820604 -0.03431599 -0.570466
vn -0.9167969 -0.1129217 -0.3830563
vn -0.7102225 -0.6870827 -0.1533017
vn -0.958777 -0.203361 0.198472
vn -0.9326542 -0.1784439 0.3135507
vn -0.9008045 -0.1455696 0.4090977
vn -0.6571699 -0.6651148 0.3546126
vn -0.848548 -0.1438258 0.5091959
vn -0.5624856 -0.5389869 0.6269792
g NewTrainingset_Male_Naked_Torso_0
f 3/3/3 2/2/2 1/1/1
f 4/4/4 3/3/3 1/1/1
f 5/5/5 3/3/3 4/4/4
f 6/6/6 4/4/4 1/1/1
f 7/7/7 6/6/6 1/1/1
f 6/6/6 7/7/7 8/8/8
f 7/7/7 9/9/9 8/8/8
f 8/8/8 9/9/9 10/10/10
f 9/9/9 11/11/11 10/10/10
f 8/8/8 12/12/12 6/6/6
f 12/12/12 8/8/8 10/10/10
f 13/13/13 10/10/10 11/11/11
f 13/13/13 12/12/12 10/10/10
f 14/14/14 13/13/13 11/11/11
f 6/6/6 15/15/15 4/4/4
f 12/12/12 15/15/15 6/6/6
f 16/16/16 5/5/5 4/4/4
f 15/15/15 16/16/16 4/4/4
f 5/5/5 16/16/16 17/17/17
f 18/18/18 5/5/5 17/17/17
f 17/17/17 16/16/16 19/19/19
f 16/16/16 15/15/15 19/19/19
f 19/19/19 15/15/15 20/20/20
f 15/15/15 12/12/12 20/20/20
f 20/20/20 12/12/12 21/21/21
f 12/12/12 13/13/13 21/21/21
f 21/21/21 13/13/13 14/14/14
f 22/22/22 21/21/21 14/14/14
f 23/23/23 22/22/22 14/14/14
f 24/24/24 23/23/23 14/14/14
f 14/14/14 25/25/25 24/24/24
f 26/26/26 23/23/23 24/24/24
f 25/25/25 27/27/27 24/24/24
f 27/27/27 25/25/25 28/28/28
f 29/29/29 26/26/26 24/24/24
f 30/30/30 26/26/26 29/29/29
f 31/31/31 30/30/30 29/29/29
f 32/32/32 29/29/29 24/24/24
f 31/31/31 29/29/29 32/32/32
f 27/27/27 32/32/32 24/24/24
f 33/33/33 31/31/31 32/32/32
f 34/34/34 27/27/27 28/28/28
f 34/34/34 28/28/28 35/35/35
f 27/27/27 34/34/34 35/35/35
f 32/32/32 27/27/27 35/35/35
f 28/28/28 36/36/36 35/35/35
f 35/35/35 36/36/36 37/37/37
f 36/36/36 38/38/38 37/37/37
f 35/35/35 37/37/37 39/39/39
f 32/32/32 35/35/35 39/39/39
f 32/32/32 39/39/39 33/33/33
f 39/39/39 40/40/40 33/33/33
f 41/41/41 33/33/33 40/40/40
f 42/42/42 41/41/41 40/40/40
f 45/45/45 44/44/44 43/43/43
f 46/46/46 45/45/45 43/43/43
f 45/45/45 46/46/46 47/47/47
f 46/46/46 48/48/48 47/47/47
f 48/48/48 46/46/46 49/49/49
f 50/50/50 48/48/48 49/49/49
f 47/47/47 48/48/48 51/51/51
f 52/52/52 47/47/47 51/51/51
f 51/51/51 48/48/48 53/53/53
f 54/54/54 48/48/48 50/50/50
f 48/48/48 54/54/54 53/53/53
f 55/55/55 54/54/54 50/50/50
f 56/56/56 53/53/53 54/54/54
f 57/57/57 54/54/54 55/55/55
f 57/57/57 56/56/56 54/54/54
f 58/58/58 57/57/57 55/55/55
f 59/59/59 56/56/56 57/57/57
f 60/60/60 59/59/59 57/57/57
f 60/60/60 61/61/61 59/59/59
f 61/61/61 62/62/62 59/59/59
f 63/63/63 62/62/62 61/61/61
f 64/64/64 63/63/63 61/61/61
f 64/64/64 61/61/61 65/65/65
f 66/66/66 64/64/64 65/65/65
f 67/67/67 66/66/66 65/65/65
f 61/61/61 68/68/68 65/65/65
f 69/69/69 67/67/67 65/65/65
f 65/65/65 68/68/68 70/70/70
f 70/70/70 69/69/69 65/65/65
f 71/71/71 69/69/69 70/70/70
f 68/68/68 72/72/72 70/70/70
f 73/73/73 71/71/71 70/70/70
f 70/70/70 72/72/72 73/73/73
f 72/72/72 74/74/74 73/73/73
f 77/77/77 76/76/76 75/75/75
f 76/76/76 78/78/78 75/75/75
f 76/76/76 79/79/79 78/78/78
f 78/78/78 80/80/80 75/75/75
f 80/80/80 81/81/81 75/75/75
f 81/81/81 80/80/80 82/82/82
f 83/83/83 81/81/81 82/82/82
f 83/83/83 82/82/82 84/84/84
f 85/85/85 83/83/83 84/84/84
f 86/86/86 82/82/82 80/80/80
f 82/82/82 86/86/86 84/84/84
f 84/84/84 87/87/87 85/85/85
f 86/86/86 87/87/87 84/84/84
f 87/87/87 88/88/88 85/85/85
f 89/89/89 80/80/80 78/78/78
f 89/89/89 86/86/86 80/80/80
f 79/79/79 90/90/90 78/78/78
f 90/90/90 89/89/89 78/78/78
f 90/90/90 79/79/79 91/91/91
f 79/79/79 92/92/92 91/91/91
f 90/90/90 91/91/91 93/93/93
f 89/89/89 90/90/90 93/93/93
f 89/89/89 93/93/93 94/94/94
f 86/86/86 89/89/89 94/94/94
f 86/86/86 94/94/94 95/95/95
f 87/87/87 86/86/86 95/95/95
f 87/87/87 95/95/95 88/88/88
f 95/95/95 96/96/96 88/88/88
f 96/96/96 97/97/97 88/88/88
f 97/97/97 98/98/98 88/88/88
f 99/99/99 88/88/88 98/98/98
f 97/97/97 100/100/100 98/98/98
f 101/101/101 99/99/99 98/98/98
f 99/99/99 101/101/101 102/102/102
f 100/100/100 103/103/103 98/98/98
f 100/100/100 104/104/104 103/103/103
f 104/104/104 105/105/105 103/103/103
f 103/103/103 106/106/106 98/98/98
f 103/103/103 105/105/105 106/106/106
f 106/106/106 101/101/101 98/98/98
f 105/105/105 107/107/107 106/106/106
f 101/101/101 108/108/108 102/102/102
f 102/102/102 108/108/108 109/109/109
f 108/108/108 101/101/101 109/109/109
f 101/101/101 106/106/106 109/109/109
f 110/110/110 102/102/102 109/109/109
f 110/110/110 109/109/109 111/111/111
f 112/112/112 110/110/110 111/111/111
f 111/111/111 109/109/109 113/113/113
f 109/109/109 106/106/106 113/113/113
f 113/113/113 106/106/106 107/107/107
f 114/114/114 113/113/113 107/107/107
f 107/107/107 115/115/115 114/114/114
f 115/115/115 116/116/116 114/114/114
f 119/119/119 118/118/118 117/117/117
f 118/118/118 120/120/120 117/117/117
f 120/120/120 118/118/118 121/121/121
f 122/122/122 120/120/120 121/121/121
f 120/120/120 122/122/122 123/123/123
f 122/122/122 124/124/124 123/123/123
f 122/122/122 121/121/121 125/125/125
f 121/121/121 126/126/126 125/125/125
f 122/122/122 125/125/125 127/127/127
f 122/122/122 128/128/128 124/124/124
f 128/128/128 122/122/122 127/127/127
f 128/128/128 129/129/129 124/124/124
f 127/127/127 130/130/130 128/128/128
f 128/128/128 131/131/131 129/129/129
f 130/130/130 131/131/131 128/128/128
f 131/131/131 132/132/132 129/129/129
f 130/130/130 133/133/133 131/131/131
f 133/133/133 134/134/134 131/131/131
f 135/135/135 134/134/134 133/133/133
f 136/136/136 135/135/135 133/133/133
f 136/136/136 137/137/137 135/135/135
f 137/137/137 138/138/138 135/135/135
f 135/135/135 138/138/138 139/139/139
f 138/138/138 140/140/140 139/139/139
f 140/140/140 141/141/141 139/139/139
f 142/142/142 135/135/135 139/139/139
f 141/141/141 143/143/143 139/139/139
f 142/142/142 139/139/139 144/144/144
f 143/143/143 144/144/144 139/139/139
f 143/143/143 145/145/145 144/144/144
f 146/146/146 142/142/142 144/144/144
f 145/145/145 147/147/147 144/144/144
f 146/146/146 144/144/144 147/147/147
f 148/148/148 146/146/146 147/147/147
