g Beard3_LP
v 0 1.501475 0.06957932
v 0.008475378 1.492873 0.0617791
v 0 1.489816 0.06599499
v 0.006775059 1.501978 0.06527463
v 0 1.514735 0.0692682
v 0.01233613 1.501637 0.05910651
v 0.01661073 1.498893 0.05212488
v 0.005899198 1.513335 0.06637794
v 0.01719736 1.506784 0.0521885
v 0.0240033 1.505669 0.04062264
v 0.005882837 1.526831 0.06250458
v 0 1.528339 0.06458474
v 0.01162564 1.511315 0.06079358
v 0.02465224 1.511163 0.04196045
v 0.0175222 1.5142 0.05191539
v 0.01164233 1.521552 0.0597146
v 0.006872281 1.538647 0.05275471
v 0.01266821 1.529967 0.05342415
v 0.01847801 1.520095 0.05050822
v 0.02532317 1.51575 0.04267572
v 0 1.540039 0.05456644
v 0.02822734 1.516266 0.03880214
v -0.006872281 1.538647 0.05275471
v 0.02783196 1.512093 0.03746311
v 0.02718095 1.508029 0.03552895
v 0.03059546 1.51687 0.0343924
v 0.03011531 1.513481 0.03263651
v 0.03117161 1.516385 0.03198727
v 0.02934161 1.511003 0.03052388
v 0.03097817 1.514902 0.0295391
v 0.03002539 1.512883 0.02858723
v -0.005882837 1.526831 0.06250458
v 0 1.514735 0.0692682
v -0.01164233 1.521552 0.0597146
v -0.01266821 1.529967 0.05342415
v -0.01847801 1.520095 0.05050822
v -0.0175222 1.5142 0.05191539
v -0.02532317 1.51575 0.04267572
v -0.01162564 1.511315 0.06079358
v -0.005899198 1.513335 0.06637794
v -0.02465224 1.511163 0.04196045
v -0.02822734 1.516266 0.03880214
v -0.006775059 1.501978 0.06527463
v 0 1.501475 0.06957932
v -0.01719736 1.506784 0.0521885
v -0.01233613 1.501637 0.05910651
v -0.008475378 1.492873 0.0617791
v 0 1.489816 0.06599499
v -0.01661073 1.498893 0.05212488
v -0.0240033 1.505669 0.04062264
v -0.02783196 1.512093 0.03746311
v -0.03059546 1.51687 0.0343924
v -0.02718095 1.508029 0.03552895
v -0.03011531 1.513481 0.03263651
v -0.03117161 1.516385 0.03198727
v -0.02934161 1.511003 0.03052388
v -0.03097817 1.514902 0.0295391
v -0.03002539 1.512883 0.02858723
v 0.006872281 1.538647 0.05275471
v 0.003181996 1.538861 0.04995273
v 0.008977929 1.53018 0.05062217
v 0.01266821 1.529967 0.05342415
v 0.01478772 1.520308 0.04770624
v 0.01847801 1.520095 0.05050822
v 0.02163288 1.515963 0.03987374
v 0.02532317 1.51575 0.04267572
v 0.02453705 1.516479 0.03600016
v 0.02822734 1.516266 0.03880214
v 0.02690517 1.517084 0.03159042
v 0.03059546 1.51687 0.0343924
v 0.02748133 1.516598 0.02918529
v 0.03117161 1.516385 0.03198727
v 0.02796833 1.515292 0.02702405
v 0.03097817 1.514902 0.0295391
v 0.008475378 1.492873 0.0617791
v 0 1.488964 0.06100036
v 0 1.489816 0.06599499
v 0.006008852 1.491626 0.05761922
v 0.01661073 1.498893 0.05212488
v 0.01347574 1.497049 0.04939981
v 0.0240033 1.505669 0.04062264
v 0.02090397 1.50539 0.03799798
v 0.02718095 1.508029 0.03552895
v 0 1.492839 0.04754025
v 0.02349066 1.508242 0.03272697
v 0.02934161 1.511003 0.03052388
v 0 1.499271 0.03448732
v 0.02482491 1.511681 0.02719657
v 0.03002539 1.512883 0.02858723
v 0.02631494 1.51387 0.02607345
v 0 1.50436 0.0288633
v 0 1.508519 0.02488048
v 0 1.510533 0.02291421
v -0.02631494 1.51387 0.02607345
v -0.02482491 1.511681 0.02719657
v -0.03002539 1.512883 0.02858723
v -0.02934161 1.511003 0.03052388
v -0.02349066 1.508242 0.03272697
v -0.02718095 1.508029 0.03552895
v -0.02090397 1.50539 0.03799798
v -0.0240033 1.505669 0.04062264
v -0.01347574 1.497049 0.04939981
v -0.01661073 1.498893 0.05212488
v -0.006008852 1.491626 0.05761922
v -0.008475378 1.492873 0.0617791
v 0 1.489816 0.06599499
v 0 1.540039 0.05456644
v 0.003181996 1.538861 0.04995273
v 0.006872281 1.538647 0.05275471
v 0 1.540253 0.05176446
v -0.003181996 1.538861 0.04995273
v -0.006872281 1.538647 0.05275471
v 0.03097817 1.514902 0.0295391
v 0.02796833 1.515292 0.02702405
v 0.02631494 1.51387 0.02607345
v 0.03002539 1.512883 0.02858723
v -0.006872281 1.538647 0.05275471
v -0.008977929 1.53018 0.05062217
v -0.003181996 1.538861 0.04995273
v -0.01266821 1.529967 0.05342415
v -0.01478772 1.520308 0.04770624
v -0.01847801 1.520095 0.05050822
v -0.02163288 1.515963 0.03987374
v -0.02532317 1.51575 0.04267572
v -0.02453705 1.516479 0.03600016
v -0.02822734 1.516266 0.03880214
v -0.02690517 1.517084 0.03159042
v -0.03059546 1.51687 0.0343924
v -0.02748133 1.516598 0.02918529
v -0.03117161 1.516385 0.03198727
v -0.02796833 1.515292 0.02702405
v -0.03097817 1.514902 0.0295391
v -0.03097817 1.514902 0.0295391
v -0.03002539 1.512883 0.02858723
v -0.02631494 1.51387 0.02607345
v -0.02796833 1.515292 0.02702405
vt 0.6211513 0.5412889
vt 0.6208414 0.4716807
vt 0.5932907 0.5006897
vt 0.6541165 0.5112826
vt 0.6671003 0.6082506
vt 0.6786915 0.4629554
vt 0.6731118 0.395394
vt 0.7014881 0.5716801
vt 0.7469643 0.4086433
vt 0.7559718 0.2312748
vt 0.7864393 0.6646247
vt 0.7348217 0.7069427
vt 0.7365724 0.5152196
vt 0.8388013 0.2596689
vt 0.8266305 0.4396736
vt 0.8104147 0.5828979
vt 0.9304806 0.8040645
vt 0.9229392 0.6427402
vt 0.9075469 0.4653273
vt 0.9106847 0.280636
vt 0.8388673 0.8585647
vt 0.9262348 0.207702
vt 0.7550596 0.9244403
vt 0.8693985 0.1841329
vt 0.8116447 0.1471914
vt 0.9395159 0.1490017
vt 0.9051126 0.1191771
vt 0.942166 0.1223583
vt 0.8796099 0.07968199
vt 0.9383827 0.09165198
vt 0.9195346 0.06304064
vt 0.6767682 0.7398812
vt 0.6671003 0.6082506
vt 0.5918857 0.7328506
vt 0.6072477 0.8593689
vt 0.4472471 0.7811879
vt 0.4524204 0.696454
vt 0.2737904 0.7176715
vt 0.5553023 0.6396099
vt 0.6206025 0.6271839
vt 0.2800866 0.6430591
vt 0.2001486 0.7059442
vt 0.5812954 0.5612537
vt 0.6211513 0.5412889
vt 0.4521282 0.6109605
vt 0.5273631 0.5667979
vt 0.5563136 0.5159628
vt 0.5932907 0.5006897
vt 0.4663291 0.5372895
vt 0.2833923 0.5555608
vt 0.1986037 0.6444325
vt 0.1405959 0.6972214
vt 0.1849085 0.5772573
vt 0.125145 0.6543901
vt 0.1147884 0.690107
vt 0.09746993 0.6163903
vt 0.08749199 0.6755314
vt 0.06757927 0.6476543
vt 0.9304806 0.8040645
vt 0.9974068 0.840235
vt 0.9890524 0.6689023
vt 0.9229392 0.6427402
vt 0.9812826 0.4771461
vt 0.9075469 0.4653273
vt 0.985978 0.2896891
vt 0.9106847 0.280636
vt 0.9955927 0.2105998
vt 0.9262348 0.207702
vt 0.9974068 0.1306936
vt 0.9395159 0.1490017
vt 0.9931687 0.09022275
vt 0.942166 0.1223583
vt 0.9757942 0.05052564
vt 0.9383827 0.09165198
vt 0.6208414 0.4716807
vt 0.5819992 0.4842301
vt 0.5932907 0.5006897
vt 0.6001967 0.4568333
vt 0.6731118 0.395394
vt 0.6363913 0.3839677
vt 0.7559718 0.2312748
vt 0.7049843 0.2124279
vt 0.7687014 0.1382132
vt 0.5415868 0.4253393
vt 0.7042171 0.1268467
vt 0.7595342 0.04874068
vt 0.4748435 0.3280777
vt 0.6803888 0.03961644
vt 0.7518481 0.009345919
vt 0.6867207 9.971857E-05
vt 0.4256804 0.2564305
vt 0.3835174 0.1949874
vt 0.3616228 0.1630794
vt 0.09260666 0.4077857
vt 0.1317512 0.4160943
vt 0.07780361 0.4718789
vt 0.1117927 0.4932221
vt 0.2045722 0.4697078
vt 0.1919798 0.5339597
vt 0.2841443 0.5012068
vt 0.2833923 0.5555608
vt 0.4688776 0.4989137
vt 0.4663291 0.5372895
vt 0.5498852 0.4913584
vt 0.5563136 0.5159628
vt 0.5932907 0.5006897
vt 0.8388673 0.8585647
vt 0.9199156 0.8777939
vt 0.9304806 0.8040645
vt 0.8611354 0.8910191
vt 0.8276519 0.9411097
vt 0.7550596 0.9244403
vt 0.9383827 0.09165198
vt 0.9757942 0.05052564
vt 0.9740819 0.01174831
vt 0.9195346 0.06304064
vt 0.7550596 0.9244403
vt 0.6078728 0.9304684
vt 0.7647301 0.9999
vt 0.6072477 0.8593689
vt 0.4317479 0.8542377
vt 0.4472471 0.7811879
vt 0.2551506 0.7911849
vt 0.2737904 0.7176715
vt 0.1778983 0.7717054
vt 0.2001486 0.7059442
vt 0.1026914 0.7446491
vt 0.1405959 0.6972214
vt 0.06645107 0.7261338
vt 0.1147884 0.690107
vt 0.03566349 0.6956447
vt 0.08749199 0.6755314
vt 0.08749199 0.6755314
vt 0.06757927 0.6476543
vt 9.906292E-05 0.6800947
vt 0.03566349 0.6956447
vn 0.5076864 -0.1244214 0.8525103
vn 0.6526073 -0.1993878 0.7309912
vn 0.5154887 -0.2384247 0.8230584
vn 0.6233727 -0.1137461 0.7736073
vn 0.4638489 0.1444013 0.8740667
vn 0.7844473 -0.09395484 0.6130375
vn 0.8286834 -0.08159781 0.5537379
vn 0.5703434 0.09705236 0.8156527
vn 0.8372617 -0.05401982 0.5441275
vn 0.8415759 -0.1709196 0.5123832
vn 0.5202225 0.3959759 0.7566845
vn 0 0.4840261 0.8750535
vn 0.7599315 0.02348682 0.6495787
vn 0.8176116 -0.1722507 0.5494006
vn 0.8133157 0.003641739 0.5818111
vn 0.7272401 0.2081092 0.6540738
vn 0.4671386 0.5423459 0.698314
vn 0.7006159 0.3611178 0.6154113
vn 0.7965164 0.08919749 0.5980012
vn 0.7884319 -0.1453873 0.5976936
vn 0 0.6340368 0.7733028
vn 0.8457631 -0.2437246 0.4746397
vn -0.4671393 0.5423464 0.6983132
vn 0.8641664 -0.2795622 0.4184034
vn 0.8760719 -0.3123459 0.3673393
vn 0.9056602 -0.2748785 0.3228334
vn 0.9187835 -0.3256609 0.2231188
vn 0.9350473 -0.2967017 0.1940478
vn 0.9184978 -0.3675087 0.1459424
vn 0.9325007 -0.3469594 0.1003086
vn 0.9246655 -0.3791291 0.03542503
vn -0.5202231 0.3959763 0.756684
vn -0.4638491 0.1444013 0.8740665
vn -0.7272398 0.2081092 0.654074
vn -0.7006161 0.3611181 0.6154111
vn -0.7965159 0.08919723 0.5980019
vn -0.8133144 0.003641697 0.5818131
vn -0.7884346 -0.1453879 0.5976899
vn -0.7599298 0.02348691 0.6495806
vn -0.5703431 0.09705245 0.8156528
vn -0.8176115 -0.1722508 0.5494006
vn -0.8457658 -0.2437253 0.4746348
vn -0.6233719 -0.113746 0.773608
vn -0.5076866 -0.1244214 0.8525102
vn -0.8372602 -0.05401971 0.5441298
vn -0.7844461 -0.09395478 0.613039
vn -0.6526073 -0.1993878 0.7309912
vn -0.5154887 -0.2384247 0.8230584
vn -0.8286827 -0.08159777 0.553739
vn -0.8415741 -0.1709193 0.5123862
vn -0.8641671 -0.2795624 0.4184018
vn -0.9056611 -0.2748788 0.3228307
vn -0.8760712 -0.3123457 0.367341
vn -0.9187837 -0.3256611 0.2231174
vn -0.935048 -0.296702 0.1940444
vn -0.9184978 -0.3675089 0.1459424
vn -0.9325007 -0.3469597 0.1003072
vn -0.9246653 -0.3791294 0.03542503
vn 0.582577 0.3317677 -0.74198
vn 0.582577 0.3317677 -0.74198
vn 0.568226 0.4025464 -0.7176877
vn 0.5561195 0.4510669 -0.6980472
vn 0.4381948 0.7322628 -0.5213219
vn 0.4047078 0.7823688 -0.4734033
vn 0.1262396 0.9878178 -0.09099169
vn 0.119466 0.9894508 -0.08194556
vn -0.03012059 0.9928727 0.1153104
vn -0.02983812 0.9929236 0.1149454
vn 0.08882947 0.9951964 -0.04115273
vn 0.051525 0.9986379 0.008225834
vn 0.3376822 0.8761436 -0.3440104
vn 0.2640437 0.9292138 -0.2585396
vn 0.426488 0.7856245 -0.4482209
vn 0.426488 0.7856245 -0.4482209
vn 0.477457 -0.878472 0.01794055
vn 0 -0.9993792 -0.03523056
vn 0.4093852 -0.9071138 0.09771523
vn 0.4029921 -0.9067043 -0.1244372
vn 0.5155806 -0.8421999 -0.1577216
vn 0.4262335 -0.8665189 -0.25975
vn 0.3850285 -0.8807987 -0.275584
vn 0.3318402 -0.8620441 -0.3830955
vn 0.2514152 -0.8928456 -0.373654
vn 0 -0.928256 -0.3719419
vn 0.2378575 -0.8461131 -0.4769867
vn 0.2804108 -0.7938376 -0.5396218
vn 0 -0.8701504 -0.4927863
vn 0.2259362 -0.7240234 -0.6517231
vn 0.5004146 -0.3643931 -0.785368
vn 0.3704923 -0.5220713 -0.7682298
vn 0 -0.816847 -0.5768543
vn 0 -0.7180408 -0.6960011
vn 0 -0.6291897 -0.7772518
vn -0.3704884 -0.5220709 -0.7682319
vn -0.225936 -0.724023 -0.6517234
vn -0.5004069 -0.3643928 -0.785373
vn -0.2804106 -0.7938377 -0.5396218
vn -0.2378574 -0.8461128 -0.4769873
vn -0.2514151 -0.8928456 -0.373654
vn -0.33184 -0.8620435 -0.3830971
vn -0.385028 -0.8807979 -0.2755876
vn -0.4262336 -0.866519 -0.2597495
vn -0.5155807 -0.8421998 -0.1577218
vn -0.4029923 -0.9067045 -0.1244351
vn -0.477457 -0.8784719 0.01794427
vn -0.4093852 -0.9071138 0.09771523
vn 0 0.9963356 -0.08552991
vn 0.2380713 0.9676886 -0.08307072
vn 0.2380713 0.9676886 -0.08307072
vn 0 0.9963356 -0.0855299
vn -0.2380711 0.9676887 -0.08307073
vn -0.2380711 0.9676887 -0.08307073
vn 0.5978436 -0.009625611 -0.801555
vn 0.5978436 -0.009625611 -0.801555
vn 0.3704923 -0.5220713 -0.7682298
vn 0.5004146 -0.3643931 -0.785368
vn -0.5825772 0.3317676 -0.7419798
vn -0.5682248 0.4025451 -0.7176893
vn -0.5825772 0.3317676 -0.7419798
vn -0.5561176 0.4510647 -0.6980501
vn -0.4381934 0.7322614 -0.521325
vn -0.4047067 0.7823679 -0.4734057
vn -0.1262396 0.9878178 -0.0909917
vn -0.1194661 0.9894508 -0.08194556
vn 0.03012064 0.9928733 0.1153052
vn 0.02983817 0.9929241 0.1149407
vn -0.08882934 0.995196 -0.04116002
vn -0.0515249 0.9986379 0.008217691
vn -0.337681 0.876141 -0.3440183
vn -0.2640431 0.9292121 -0.2585464
vn -0.426486 0.7856204 -0.4482301
vn -0.426486 0.7856204 -0.4482301
vn -0.5978302 -0.009625394 -0.8015649
vn -0.5004069 -0.3643928 -0.785373
vn -0.3704884 -0.5220709 -0.7682319
vn -0.5978302 -0.009625394 -0.8015649
g Beard3_LP_0
f 3/3/3 2/2/2 1/1/1
f 2/2/2 4/4/4 1/1/1
f 1/1/1 4/4/4 5/5/5
f 6/6/6 4/4/4 2/2/2
f 7/7/7 6/6/6 2/2/2
f 4/4/4 8/8/8 5/5/5
f 4/4/4 6/6/6 8/8/8
f 7/7/7 9/9/9 6/6/6
f 10/10/10 9/9/9 7/7/7
f 5/5/5 8/8/8 11/11/11
f 12/12/12 5/5/5 11/11/11
f 6/6/6 13/13/13 8/8/8
f 9/9/9 13/13/13 6/6/6
f 11/11/11 8/8/8 13/13/13
f 10/10/10 14/14/14 9/9/9
f 13/13/13 9/9/9 15/15/15
f 14/14/14 15/15/15 9/9/9
f 16/16/16 11/11/11 13/13/13
f 16/16/16 13/13/13 15/15/15
f 11/11/11 17/17/17 12/12/12
f 11/11/11 16/16/16 17/17/17
f 16/16/16 18/18/18 17/17/17
f 18/18/18 16/16/16 19/19/19
f 16/16/16 15/15/15 19/19/19
f 20/20/20 19/19/19 15/15/15
f 14/14/14 20/20/20 15/15/15
f 17/17/17 21/21/21 12/12/12
f 22/22/22 20/20/20 14/14/14
f 21/21/21 23/23/23 12/12/12
f 24/24/24 14/14/14 10/10/10
f 24/24/24 22/22/22 14/14/14
f 25/25/25 24/24/24 10/10/10
f 26/26/26 22/22/22 24/24/24
f 27/27/27 24/24/24 25/25/25
f 27/27/27 26/26/26 24/24/24
f 28/28/28 26/26/26 27/27/27
f 29/29/29 27/27/27 25/25/25
f 30/30/30 28/28/28 27/27/27
f 30/30/30 27/27/27 29/29/29
f 31/31/31 30/30/30 29/29/29
f 23/23/23 32/32/32 12/12/12
f 33/33/33 12/12/12 32/32/32
f 34/34/34 32/32/32 23/23/23
f 35/35/35 34/34/34 23/23/23
f 34/34/34 35/35/35 36/36/36
f 37/37/37 34/34/34 36/36/36
f 36/36/36 38/38/38 37/37/37
f 32/32/32 34/34/34 39/39/39
f 39/39/39 34/34/34 37/37/37
f 40/40/40 33/33/33 32/32/32
f 40/40/40 32/32/32 39/39/39
f 38/38/38 41/41/41 37/37/37
f 38/38/38 42/42/42 41/41/41
f 40/40/40 43/43/43 33/33/33
f 43/43/43 44/44/44 33/33/33
f 45/45/45 39/39/39 37/37/37
f 37/37/37 41/41/41 45/45/45
f 39/39/39 46/46/46 40/40/40
f 46/46/46 43/43/43 40/40/40
f 39/39/39 45/45/45 46/46/46
f 43/43/43 47/47/47 44/44/44
f 43/43/43 46/46/46 47/47/47
f 47/47/47 48/48/48 44/44/44
f 46/46/46 49/49/49 47/47/47
f 45/45/45 49/49/49 46/46/46
f 45/45/45 50/50/50 49/49/49
f 41/41/41 50/50/50 45/45/45
f 42/42/42 51/51/51 41/41/41
f 41/41/41 51/51/51 50/50/50
f 42/42/42 52/52/52 51/51/51
f 51/51/51 53/53/53 50/50/50
f 52/52/52 54/54/54 51/51/51
f 51/51/51 54/54/54 53/53/53
f 52/52/52 55/55/55 54/54/54
f 54/54/54 56/56/56 53/53/53
f 55/55/55 57/57/57 54/54/54
f 54/54/54 57/57/57 56/56/56
f 57/57/57 58/58/58 56/56/56
f 61/61/61 60/60/60 59/59/59
f 62/62/62 61/61/61 59/59/59
f 63/63/63 61/61/61 62/62/62
f 64/64/64 63/63/63 62/62/62
f 65/65/65 63/63/63 64/64/64
f 66/66/66 65/65/65 64/64/64
f 67/67/67 65/65/65 66/66/66
f 68/68/68 67/67/67 66/66/66
f 69/69/69 67/67/67 68/68/68
f 70/70/70 69/69/69 68/68/68
f 71/71/71 69/69/69 70/70/70
f 72/72/72 71/71/71 70/70/70
f 73/73/73 71/71/71 72/72/72
f 74/74/74 73/73/73 72/72/72
f 77/77/77 76/76/76 75/75/75
f 76/76/76 78/78/78 75/75/75
f 75/75/75 78/78/78 79/79/79
f 78/78/78 80/80/80 79/79/79
f 78/78/78 76/76/76 80/80/80
f 79/79/79 80/80/80 81/81/81
f 80/80/80 82/82/82 81/81/81
f 81/81/81 82/82/82 83/83/83
f 76/76/76 84/84/84 80/80/80
f 80/80/80 84/84/84 82/82/82
f 82/82/82 85/85/85 83/83/83
f 83/83/83 85/85/85 86/86/86
f 84/84/84 87/87/87 82/82/82
f 82/82/82 87/87/87 85/85/85
f 85/85/85 88/88/88 86/86/86
f 86/86/86 88/88/88 89/89/89
f 88/88/88 90/90/90 89/89/89
f 88/88/88 85/85/85 91/91/91
f 87/87/87 91/91/91 85/85/85
f 88/88/88 92/92/92 90/90/90
f 92/92/92 88/88/88 91/91/91
f 92/92/92 93/93/93 90/90/90
f 93/93/93 92/92/92 94/94/94
f 92/92/92 95/95/95 94/94/94
f 95/95/95 92/92/92 91/91/91
f 94/94/94 95/95/95 96/96/96
f 95/95/95 97/97/97 96/96/96
f 98/98/98 95/95/95 91/91/91
f 95/95/95 98/98/98 97/97/97
f 91/91/91 87/87/87 98/98/98
f 98/98/98 99/99/99 97/97/97
f 87/87/87 100/100/100 98/98/98
f 98/98/98 100/100/100 99/99/99
f 87/87/87 84/84/84 100/100/100
f 100/100/100 101/101/101 99/99/99
f 84/84/84 102/102/102 100/100/100
f 100/100/100 102/102/102 101/101/101
f 102/102/102 103/103/103 101/101/101
f 84/84/84 76/76/76 102/102/102
f 102/102/102 104/104/104 103/103/103
f 76/76/76 104/104/104 102/102/102
f 104/104/104 105/105/105 103/103/103
f 104/104/104 76/76/76 105/105/105
f 76/76/76 106/106/106 105/105/105
f 109/109/109 108/108/108 107/107/107
f 108/108/108 110/110/110 107/107/107
f 110/110/110 111/111/111 107/107/107
f 111/111/111 112/112/112 107/107/107
f 115/115/115 114/114/114 113/113/113
f 116/116/116 115/115/115 113/113/113
f 119/119/119 118/118/118 117/117/117
f 118/118/118 120/120/120 117/117/117
f 118/118/118 121/121/121 120/120/120
f 121/121/121 122/122/122 120/120/120
f 121/121/121 123/123/123 122/122/122
f 123/123/123 124/124/124 122/122/122
f 123/123/123 125/125/125 124/124/124
f 125/125/125 126/126/126 124/124/124
f 125/125/125 127/127/127 126/126/126
f 127/127/127 128/128/128 126/126/126
f 127/127/127 129/129/129 128/128/128
f 129/129/129 130/130/130 128/128/128
f 129/129/129 131/131/131 130/130/130
f 131/131/131 132/132/132 130/130/130
f 135/135/135 134/134/134 133/133/133
f 136/136/136 135/135/135 133/133/133
