g Fuzz_Eyelashes2
v 0.02282567 1.629709 0.03837414
v 0.01786113 1.624848 0.03485399
v 0.01653499 1.625923 0.03347657
v 0.02380578 1.631876 0.03760378
v 0.02467247 1.630773 0.03925255
v 0.03374316 1.634053 0.03767141
v 0.03112869 1.632195 0.0395858
v 0.0369191 1.632732 0.03885475
v 0.04375191 1.631932 0.03422065
v 0.0421849 1.632071 0.03720484
v 0.04660524 1.630507 0.03437021
v 0.05072743 1.628043 0.02675123
v 0.05090098 1.627458 0.0292652
v 0.05287499 1.623545 0.02354178
v 0.0531687 1.624531 0.02243577
v 0.02445974 1.629814 0.03591227
v 0.01913531 1.625196 0.0329736
v 0.01863835 1.624404 0.03398839
v 0.02441074 1.629333 0.037205
v 0.01786113 1.624848 0.03485399
v 0.02282567 1.629709 0.03837414
v 0.02467247 1.630773 0.03925255
v 0.03342978 1.631357 0.03731622
v 0.03112869 1.632195 0.0395858
v 0.03337714 1.631812 0.03603223
v 0.0369191 1.632732 0.03885475
v 0.04312298 1.630106 0.03464939
v 0.0421849 1.632071 0.03720484
v 0.04297308 1.630553 0.03336956
v 0.04660524 1.630507 0.03437021
v 0.04895665 1.626222 0.02900937
v 0.05090098 1.627458 0.0292652
v 0.04858875 1.627176 0.02723766
v 0.05142017 1.623792 0.02195296
v 0.05151131 1.622753 0.02337709
v 0.05090098 1.627458 0.0292652
v 0.05287499 1.623545 0.02354178
v 0.04895665 1.626222 0.02900937
v -0.02282567 1.629709 0.03837414
v -0.01653499 1.625923 0.03347657
v -0.01786113 1.624848 0.03485399
v -0.02380578 1.631876 0.03760378
v -0.02467247 1.630773 0.03925255
v -0.03374316 1.634053 0.03767141
v -0.03112869 1.632195 0.0395858
v -0.0369191 1.632732 0.03885475
v -0.04375191 1.631932 0.03422065
v -0.0421849 1.632071 0.03720484
v -0.04660524 1.630507 0.03437021
v -0.05072743 1.628043 0.02675123
v -0.05090098 1.627458 0.0292652
v -0.05287499 1.623545 0.02354178
v -0.0531687 1.624531 0.02243577
v -0.02445974 1.629814 0.03591227
v -0.01863835 1.624404 0.03398839
v -0.01913531 1.625196 0.0329736
v -0.02441074 1.629333 0.037205
v -0.01786113 1.624848 0.03485399
v -0.02282567 1.629709 0.03837414
v -0.02467247 1.630773 0.03925255
v -0.03342978 1.631357 0.03731622
v -0.03112869 1.632195 0.0395858
v -0.03337714 1.631812 0.03603223
v -0.0369191 1.632732 0.03885475
v -0.04312298 1.630106 0.03464939
v -0.0421849 1.632071 0.03720484
v -0.04297308 1.630553 0.03336956
v -0.04660524 1.630507 0.03437021
v -0.04895665 1.626222 0.02900937
v -0.05090098 1.627458 0.0292652
v -0.04858875 1.627176 0.02723766
v -0.05142017 1.623792 0.02195296
v -0.05151131 1.622753 0.02337709
v -0.05090098 1.627458 0.0292652
v -0.04895665 1.626222 0.02900937
v -0.05287499 1.623545 0.02354178
vt 0.04557558 0.6565864
vt 0.04580181 0.6565672
vt 0.04066311 0.65649
vt 0.04066311 0.65649
vt 0.04485626 0.659943
vt 0.03705825 0.6798279
vt 0.04213199 0.6763501
vt 0.04141271 0.6858849
vt 0.0366134 0.70545
vt 0.04057686 0.6993456
vt 0.04164301 0.7114407
vt 0.04123594 0.733586
vt 0.04428518 0.7315263
vt 0.04483607 0.7314554
vt 0.04365274 0.732007
vt 0.05061334 0.6583433
vt 0.05061334 0.6583433
vt 0.04765332 0.6572701
vt 0.04765332 0.6572701
vt 0.04580181 0.6565672
vt 0.04557558 0.6565864
vt 0.04485626 0.659943
vt 0.04426372 0.6797589
vt 0.04213199 0.6763501
vt 0.04729046 0.6803716
vt 0.04141271 0.6858849
vt 0.04295713 0.7028168
vt 0.04057686 0.6993456
vt 0.04598856 0.7034274
vt 0.04164301 0.7114407
vt 0.04632403 0.7316142
vt 0.04428518 0.7315263
vt 0.04979526 0.7315714
vt 0.04979526 0.7315714
vt 0.04632403 0.7316142
vt 0.04428518 0.7315263
vt 0.04483607 0.7314554
vt 0.04632403 0.7316142
vt 0.04557558 0.6565864
vt 0.04066311 0.65649
vt 0.04580181 0.6565672
vt 0.04066311 0.65649
vt 0.04485626 0.659943
vt 0.03705825 0.6798279
vt 0.04213199 0.6763501
vt 0.04141271 0.6858849
vt 0.0366134 0.70545
vt 0.04057686 0.6993456
vt 0.04164301 0.7114407
vt 0.04123594 0.733586
vt 0.04428518 0.7315263
vt 0.04483607 0.7314554
vt 0.04365274 0.732007
vt 0.05061334 0.6583433
vt 0.04765332 0.6572701
vt 0.05061334 0.6583433
vt 0.04765332 0.6572701
vt 0.04580181 0.6565672
vt 0.04557558 0.6565864
vt 0.04485626 0.659943
vt 0.04426372 0.6797589
vt 0.04213199 0.6763501
vt 0.04729046 0.6803716
vt 0.04141271 0.6858849
vt 0.04295713 0.7028168
vt 0.04057686 0.6993456
vt 0.04598856 0.7034274
vt 0.04164301 0.7114407
vt 0.04632403 0.7316142
vt 0.04428518 0.7315263
vt 0.04979526 0.7315714
vt 0.04979526 0.7315714
vt 0.04632403 0.7316142
vt 0.04428518 0.7315263
vt 0.04632403 0.7316142
vt 0.04483607 0.7314554
vn -0.6679137 0.3879818 0.6351074
vn -0.6968073 0.3428783 0.6299953
vn -0.6968073 0.3428783 0.6299953
vn -0.4778192 0.6037654 0.6380879
vn -0.3540796 0.703187 0.6165677
vn 0.0261147 0.8054467 0.5920925
vn -0.1455702 0.7831653 0.6045341
vn 0.1964903 0.9321921 0.303989
vn 0.4170513 0.89668 0.1484362
vn 0.2734334 0.9444809 0.182181
vn 0.5197997 0.8525304 0.05477346
vn 0.8483425 0.5134182 0.129293
vn 0.6873095 0.7231984 0.067747
vn 0.9309922 0.3225623 0.1709002
vn 0.9309922 0.3225623 0.1709002
vn 0.4771749 -0.8321081 -0.2826665
vn 0.7018934 -0.6807384 -0.2096212
vn 0.5311363 -0.8009136 0.2764626
vn 0.3662828 -0.9030791 0.2242434
vn 0.2795294 -0.7331557 0.6199565
vn 0.2503098 -0.7681257 0.5893455
vn 0.1832422 -0.8284611 0.5292207
vn 0.08826253 -0.9854169 0.1454756
vn 0.1633586 -0.8458785 0.5077435
vn -0.0106025 -0.9444433 -0.3285034
vn 0.08627615 -0.8127153 0.5762382
vn -0.1133323 -0.950605 0.2889741
vn 0.08794753 -0.7868407 0.6108576
vn -0.4923328 -0.8299528 -0.2622724
vn 0.2004257 -0.7244275 0.6595712
vn -0.2656945 -0.900178 0.3450886
vn 0.2904314 -0.714164 0.6368825
vn -0.8090203 -0.5598103 -0.179161
vn -0.880686 -0.4482669 -0.1531311
vn -0.4786721 -0.8337268 0.2752684
vn 0.2904314 -0.714164 0.6368825
vn 0.3587994 -0.7107004 0.605118
vn -0.2656945 -0.900178 0.3450886
vn 0.6679137 0.3879819 0.6351073
vn 0.6968074 0.3428784 0.6299952
vn 0.6968074 0.3428784 0.6299952
vn 0.4778197 0.6037667 0.6380862
vn 0.3540801 0.703189 0.6165652
vn -0.02611426 0.8054445 0.5920956
vn 0.1455708 0.7831677 0.6045308
vn -0.196489 0.9321864 0.3040077
vn -0.417051 0.8966791 0.1484415
vn -0.2734326 0.9444774 0.1822004
vn -0.5197998 0.8525304 0.05477344
vn -0.8483422 0.5134175 0.1292983
vn -0.6873096 0.7231982 0.06774931
vn -0.9309914 0.322561 0.1709077
vn -0.9309914 0.322561 0.1709077
vn -0.4771776 -0.8321098 -0.2826566
vn -0.531135 -0.8009137 0.276465
vn -0.7018982 -0.680743 -0.2095899
vn -0.3662834 -0.9030783 0.2242455
vn -0.2795338 -0.7331679 0.61994
vn -0.2503122 -0.7681323 0.5893356
vn -0.1832414 -0.8284576 0.5292264
vn -0.08826185 -0.9854164 0.1454805
vn -0.1633578 -0.8458749 0.5077499
vn 0.01060359 -0.9444439 -0.3285019
vn -0.08627509 -0.8127021 0.5762568
vn 0.1133324 -0.9506032 0.2889796
vn -0.08794643 -0.7868274 0.610875
vn 0.4923325 -0.8299534 -0.2622711
vn -0.200427 -0.7244317 0.6595663
vn 0.2656938 -0.9001803 0.3450827
vn -0.2904323 -0.7141665 0.6368793
vn 0.8090196 -0.5598094 -0.1791662
vn 0.8806855 -0.4482664 -0.1531345
vn 0.4786724 -0.8337274 0.275266
vn -0.2904323 -0.7141665 0.6368793
vn 0.2656938 -0.9001803 0.3450827
vn -0.3587995 -0.7107003 0.6051182
g Fuzz_Eyelashes2_0
f 3/3/3 2/2/2 1/1/1
f 4/4/4 3/3/3 1/1/1
f 4/4/4 1/1/1 5/5/5
f 4/4/4 5/5/5 6/6/6
f 5/5/5 7/7/7 6/6/6
f 6/6/6 7/7/7 8/8/8
f 6/6/6 8/8/8 9/9/9
f 8/8/8 10/10/10 9/9/9
f 9/9/9 10/10/10 11/11/11
f 9/9/9 11/11/11 12/12/12
f 11/11/11 13/13/13 12/12/12
f 13/13/13 14/14/14 12/12/12
f 14/14/14 15/15/15 12/12/12
f 18/18/18 17/17/17 16/16/16
f 19/19/19 18/18/18 16/16/16
f 20/20/20 18/18/18 19/19/19
f 21/21/21 20/20/20 19/19/19
f 19/19/19 22/22/22 21/21/21
f 23/23/23 19/19/19 16/16/16
f 19/19/19 23/23/23 22/22/22
f 23/23/23 24/24/24 22/22/22
f 25/25/25 23/23/23 16/16/16
f 23/23/23 26/26/26 24/24/24
f 27/27/27 23/23/23 25/25/25
f 23/23/23 27/27/27 26/26/26
f 27/27/27 28/28/28 26/26/26
f 29/29/29 27/27/27 25/25/25
f 27/27/27 30/30/30 28/28/28
f 31/31/31 27/27/27 29/29/29
f 27/27/27 31/31/31 30/30/30
f 31/31/31 32/32/32 30/30/30
f 33/33/33 31/31/31 29/29/29
f 33/33/33 34/34/34 31/31/31
f 34/34/34 35/35/35 31/31/31
f 35/35/35 37/37/37 36/36/36
f 38/38/38 35/35/35 36/36/36
f 41/41/41 40/40/40 39/39/39
f 40/40/40 42/42/42 39/39/39
f 39/39/39 42/42/42 43/43/43
f 43/43/43 42/42/42 44/44/44
f 45/45/45 43/43/43 44/44/44
f 45/45/45 44/44/44 46/46/46
f 46/46/46 44/44/44 47/47/47
f 48/48/48 46/46/46 47/47/47
f 48/48/48 47/47/47 49/49/49
f 49/49/49 47/47/47 50/50/50
f 51/51/51 49/49/49 50/50/50
f 52/52/52 51/51/51 50/50/50
f 53/53/53 52/52/52 50/50/50
f 56/56/56 55/55/55 54/54/54
f 55/55/55 57/57/57 54/54/54
f 55/55/55 58/58/58 57/57/57
f 58/58/58 59/59/59 57/57/57
f 60/60/60 57/57/57 59/59/59
f 57/57/57 61/61/61 54/54/54
f 61/61/61 57/57/57 60/60/60
f 62/62/62 61/61/61 60/60/60
f 61/61/61 63/63/63 54/54/54
f 64/64/64 61/61/61 62/62/62
f 61/61/61 65/65/65 63/63/63
f 65/65/65 61/61/61 64/64/64
f 66/66/66 65/65/65 64/64/64
f 65/65/65 67/67/67 63/63/63
f 68/68/68 65/65/65 66/66/66
f 65/65/65 69/69/69 67/67/67
f 69/69/69 65/65/65 68/68/68
f 70/70/70 69/69/69 68/68/68
f 69/69/69 71/71/71 67/67/67
f 72/72/72 71/71/71 69/69/69
f 73/73/73 72/72/72 69/69/69
f 73/73/73 75/75/75 74/74/74
f 76/76/76 73/73/73 74/74/74
