g Fuzz_Eyebrows2
v 0.006922419 1.640545 0.0482783
v 0.01697667 1.637063 0.05591344
v 0.01314994 1.637685 0.04180982
v 0.0111331 1.639427 0.05901096
v 0.008191937 1.647611 0.05114488
v 0.01083368 1.646716 0.06074311
v 0.01938447 1.651752 0.04714222
v 0.01083368 1.646716 0.06074311
v 0.008191937 1.647611 0.05114488
v 0.02171462 1.649649 0.05743269
v 0.03004334 1.655757 0.04009729
v 0.03299511 1.654381 0.05231487
v 0.04072294 1.658449 0.03312384
v 0.04402412 1.657817 0.04470826
v 0.04890874 1.659483 0.02699117
v 0.05274922 1.658503 0.03479662
v 0.0577491 1.657107 0.01663981
v 0.05995882 1.656845 0.025482
v 0.04959822 1.639878 0.03581194
v 0.0622931 1.64053 0.03021989
v 0.06124895 1.639882 0.0265619
v 0.05433175 1.641039 0.03944964
v 0.04300683 1.640446 0.03893121
v 0.04700241 1.641739 0.04465954
v 0.03633468 1.641506 0.05019261
v 0.03412424 1.640381 0.04067797
v 0.02553203 1.639316 0.0526075
v 0.0225587 1.639635 0.04090442
v 0.01314994 1.637685 0.04180982
v 0.01697667 1.637063 0.05591344
v 0.06053855 1.649534 0.01584978
v 0.05995882 1.656845 0.025482
v 0.0577491 1.657107 0.01663981
v 0.06450471 1.651643 0.02859905
v 0.06124895 1.639882 0.0265619
v 0.0622931 1.64053 0.03021989
v 0.05995882 1.656845 0.025482
v 0.06450471 1.651643 0.02859905
v 0.05754451 1.653697 0.0394801
v 0.05274922 1.658503 0.03479662
v 0.04402412 1.657817 0.04470826
v 0.04808123 1.652925 0.04867313
v 0.03299511 1.654381 0.05231487
v 0.03604415 1.648735 0.05370945
v 0.02171462 1.649649 0.05743269
v 0.02480164 1.64386 0.05611221
v 0.01083368 1.646716 0.06074311
v 0.0111331 1.639427 0.05901096
v 0.01697667 1.637063 0.05591344
v 0.0111331 1.639427 0.05901096
v 0.02480164 1.64386 0.05611221
v 0.02553203 1.639316 0.0526075
v 0.03633468 1.641506 0.05019261
v 0.03604415 1.648735 0.05370945
v 0.04700241 1.641739 0.04465954
v 0.04808123 1.652925 0.04867313
v 0.05433175 1.641039 0.03944964
v 0.05754451 1.653697 0.0394801
v 0.0622931 1.64053 0.03021989
v 0.06450471 1.651643 0.02859905
v -0.006922419 1.640545 0.0482783
v -0.01314994 1.637685 0.04180982
v -0.01697667 1.637063 0.05591344
v -0.0111331 1.639427 0.05901096
v -0.008191937 1.647611 0.05114488
v -0.01083368 1.646716 0.06074311
v -0.01938447 1.651752 0.04714222
v -0.008191937 1.647611 0.05114488
v -0.01083368 1.646716 0.06074311
v -0.02171462 1.649649 0.05743269
v -0.03004334 1.655757 0.04009729
v -0.03299511 1.654381 0.05231487
v -0.04072294 1.658449 0.03312384
v -0.04402412 1.657817 0.04470826
v -0.04890874 1.659483 0.02699117
v -0.05274922 1.658503 0.03479662
v -0.0577491 1.657107 0.01663981
v -0.05995882 1.656845 0.025482
v -0.04959822 1.639878 0.03581194
v -0.06124895 1.639882 0.0265619
v -0.0622931 1.64053 0.03021989
v -0.05433175 1.641039 0.03944964
v -0.04300683 1.640446 0.03893121
v -0.04700241 1.641739 0.04465954
v -0.03633468 1.641506 0.05019261
v -0.03412424 1.640381 0.04067797
v -0.02553203 1.639316 0.0526075
v -0.0225587 1.639635 0.04090442
v -0.01314994 1.637685 0.04180982
v -0.01697667 1.637063 0.05591344
v -0.06053855 1.649534 0.01584978
v -0.0577491 1.657107 0.01663981
v -0.05995882 1.656845 0.025482
v -0.06450471 1.651643 0.02859905
v -0.06124895 1.639882 0.0265619
v -0.0622931 1.64053 0.03021989
v -0.05995882 1.656845 0.025482
v -0.05754451 1.653697 0.0394801
v -0.06450471 1.651643 0.02859905
v -0.05274922 1.658503 0.03479662
v -0.04402412 1.657817 0.04470826
v -0.04808123 1.652925 0.04867313
v -0.03299511 1.654381 0.05231487
v -0.03604415 1.648735 0.05370945
v -0.02171462 1.649649 0.05743269
v -0.02480164 1.64386 0.05611221
v -0.01083368 1.646716 0.06074311
v -0.0111331 1.639427 0.05901096
v -0.01697667 1.637063 0.05591344
v -0.02480164 1.64386 0.05611221
v -0.0111331 1.639427 0.05901096
v -0.02553203 1.639316 0.0526075
v -0.03633468 1.641506 0.05019261
v -0.03604415 1.648735 0.05370945
v -0.04700241 1.641739 0.04465954
v -0.04808123 1.652925 0.04867313
v -0.05433175 1.641039 0.03944964
v -0.05754451 1.653697 0.0394801
v -0.0622931 1.64053 0.03021989
v -0.06450471 1.651643 0.02859905
vt 0.7351122 0.009218348
vt 0.7392511 0.1583917
vt 0.8411022 0.02646044
vt 0.6791139 0.116282
vt 0.6367627 0
vt 0.5995601 0.1163657
vt 0.4759437 0.2948304
vt 0.5995601 0.1163657
vt 0.4710883 0.1316048
vt 0.6083711 0.2613522
vt 0.4616546 0.4718692
vt 0.6086512 0.4188435
vt 0.4838401 0.6433685
vt 0.6089712 0.5715944
vt 0.5228539 0.7737962
vt 0.6145074 0.7170963
vt 0.5674211 0.9511521
vt 0.6472038 0.8606272
vt 0.90808 0.6206309
vt 0.8748853 0.8005407
vt 0.9233093 0.8160129
vt 0.8377804 0.6514505
vt 0.8971625 0.5234916
vt 0.81326 0.5502446
vt 0.7758312 0.4139604
vt 0.8970662 0.4068759
vt 0.763992 0.2745672
vt 0.9166856 0.2613946
vt 0.9233093 0.1394853
vt 0.7392511 0.1583917
vt 0.7438825 0.9999999
vt 0.6472038 0.8606272
vt 0.6309674 0.9873384
vt 0.7362446 0.8313949
vt 0.8895137 0.8544338
vt 0.8748853 0.8005407
vt 0.6472038 0.8606272
vt 0.7362446 0.8313949
vt 0.7020751 0.69943
vt 0.6145074 0.7170963
vt 0.6089712 0.5715944
vt 0.6881886 0.5675687
vt 0.6086512 0.4188435
vt 0.6833681 0.4239779
vt 0.6083711 0.2613522
vt 0.6927919 0.2764861
vt 0.5995601 0.1163657
vt 0.6791139 0.116282
vt 0.7392511 0.1583917
vt 0.6791139 0.116282
vt 0.6927919 0.2764861
vt 0.763992 0.2745672
vt 0.7758312 0.4139604
vt 0.6833681 0.4239779
vt 0.81326 0.5502446
vt 0.6881886 0.5675687
vt 0.8377804 0.6514505
vt 0.7020751 0.69943
vt 0.8748853 0.8005407
vt 0.7362446 0.8313949
vt 0.2734576 0.9907817
vt 0.3794475 0.9735396
vt 0.2775966 0.8416083
vt 0.2174593 0.883718
vt 0.1751081 1
vt 0.1379054 0.8836343
vt 0.01428911 0.7051695
vt 0.009433635 0.8683953
vt 0.1379054 0.8836343
vt 0.1467164 0.7386479
vt 0 0.5281308
vt 0.1469966 0.5811566
vt 0.02218559 0.3566315
vt 0.1473164 0.4284056
vt 0.06119927 0.2262039
vt 0.1528528 0.2829037
vt 0.1057665 0.04884791
vt 0.1855492 0.1393728
vt 0.4464253 0.3793693
vt 0.4616546 0.1839872
vt 0.4132307 0.1994595
vt 0.3761257 0.3485496
vt 0.4355077 0.4765084
vt 0.3516052 0.4497554
vt 0.3141766 0.5860396
vt 0.4354115 0.5931242
vt 0.3023373 0.7254329
vt 0.4550309 0.7386054
vt 0.4616546 0.8605147
vt 0.2775966 0.8416083
vt 0.2822278 0
vt 0.1693129 0.01266156
vt 0.1855492 0.1393728
vt 0.2745899 0.1686053
vt 0.4278591 0.1455663
vt 0.4132307 0.1994595
vt 0.1855492 0.1393728
vt 0.2404205 0.30057
vt 0.2745899 0.1686053
vt 0.1528528 0.2829037
vt 0.1473164 0.4284056
vt 0.2265339 0.4324313
vt 0.1469966 0.5811566
vt 0.2217134 0.5760221
vt 0.1467164 0.7386479
vt 0.2311372 0.7235139
vt 0.1379054 0.8836343
vt 0.2174593 0.883718
vt 0.2775966 0.8416083
vt 0.2311372 0.7235139
vt 0.2174593 0.883718
vt 0.3023373 0.7254329
vt 0.3141766 0.5860396
vt 0.2217134 0.5760221
vt 0.3516052 0.4497554
vt 0.2265339 0.4324313
vt 0.3761257 0.3485496
vt 0.2404205 0.30057
vt 0.4132307 0.1994595
vt 0.2745899 0.1686053
vn -0.7008809 -0.6891542 0.1839356
vn -0.3617894 -0.9308161 0.05186335
vn -0.3617894 -0.9308161 0.05186335
vn -0.8038149 -0.5490238 0.2290295
vn -0.9480776 -0.03712204 0.3158655
vn -0.9480776 -0.03712204 0.3158655
vn -0.2511092 0.945971 0.2051412
vn -0.2373606 0.9500688 0.2025563
vn -0.2373606 0.9500688 0.2025563
vn -0.2476345 0.9470272 0.2044911
vn -0.2155823 0.9631869 0.1606094
vn -0.2315263 0.9566069 0.1769145
vn -0.08426123 0.9907849 0.1060443
vn -0.1286782 0.984753 0.1170616
vn 0.1293801 0.9911252 0.03052402
vn 0.07470094 0.9958166 0.0526215
vn 0.2307486 0.9729486 -0.01122522
vn 0.2307486 0.9729486 -0.01122522
vn 0.07133784 -0.9789874 0.1910355
vn 0.116897 -0.9816161 0.1508801
vn 0.116897 -0.9816161 0.1508801
vn 0.08332066 -0.9800275 0.1805648
vn 0.05438888 -0.9844337 0.1671294
vn 0.05211199 -0.9830468 0.1757934
vn 0.100084 -0.9929343 0.06375419
vn 0.1000726 -0.9929341 0.06377549
vn 0.1703073 -0.984421 -0.04370944
vn 0.1737709 -0.983612 -0.0480736
vn 0.2068566 -0.9742193 -0.09003967
vn 0.2068566 -0.9742193 -0.09003967
vn 0.9387469 0.1934606 -0.2851795
vn 0.8533796 0.4386733 -0.2816184
vn 0.8533796 0.4386733 -0.2816184
vn 0.958007 0.06348769 -0.2796282
vn 0.9431095 -0.2175366 -0.2514406
vn 0.9431095 -0.2175366 -0.2514406
vn 0.5881015 0.7614362 0.2726748
vn 0.5881015 0.7614362 0.2726748
vn 0.5038018 0.7806153 0.3698966
vn 0.508517 0.7799255 0.3648654
vn 0.3410713 0.6959013 0.6319746
vn 0.3402905 0.6948974 0.6334981
vn 0.2578984 0.3612393 0.8960996
vn 0.2575701 0.3718528 0.8918426
vn 0.2753679 -0.02120266 0.9611051
vn 0.2721903 0.01406805 0.9621407
vn 0.2839202 -0.1476259 0.9474154
vn 0.2839202 -0.1476259 0.9474154
vn 0.3619103 -0.4406705 0.8214806
vn 0.3619103 -0.4406705 0.8214806
vn 0.3447571 -0.4520277 0.8226868
vn 0.3438667 -0.4526094 0.8227396
vn 0.393758 -0.4071623 0.8241197
vn 0.397205 -0.4040855 0.8239802
vn 0.5522949 -0.2941375 0.7800343
vn 0.5495707 -0.2958803 0.7812982
vn 0.7083852 -0.1941429 0.6786007
vn 0.7199924 -0.186638 0.6684139
vn 0.7866811 -0.1392842 0.6014423
vn 0.7866811 -0.1392842 0.6014423
vn 0.7008812 -0.6891542 0.1839346
vn 0.3617894 -0.9308161 0.05186335
vn 0.3617894 -0.9308161 0.05186335
vn 0.8038152 -0.5490238 0.2290282
vn 0.9480782 -0.03712202 0.3158635
vn 0.9480782 -0.03712202 0.3158635
vn 0.2511091 0.9459706 0.2051433
vn 0.2373602 0.9500674 0.2025635
vn 0.2373602 0.9500674 0.2025635
vn 0.2476344 0.9470266 0.2044945
vn 0.2155823 0.9631869 0.1606088
vn 0.2315264 0.9566071 0.1769136
vn 0.08426122 0.9907849 0.1060443
vn 0.1286782 0.984753 0.1170616
vn -0.1293801 0.991125 0.03052679
vn -0.07470094 0.9958165 0.05262322
vn -0.2307486 0.9729487 -0.01122053
vn -0.2307486 0.9729487 -0.01122053
vn -0.0713378 -0.9789861 0.1910421
vn -0.116897 -0.9816156 0.1508837
vn -0.116897 -0.9816156 0.1508837
vn -0.08332062 -0.9800265 0.1805706
vn -0.05438887 -0.9844333 0.1671315
vn -0.05211198 -0.9830462 0.1757966
vn -0.100084 -0.9929345 0.06375298
vn -0.1000727 -0.9929342 0.06377427
vn -0.1703073 -0.984421 -0.04370944
vn -0.1737709 -0.983612 -0.0480736
vn -0.2068566 -0.9742193 -0.09003967
vn -0.2068566 -0.9742193 -0.09003967
vn -0.9387469 0.1934606 -0.2851795
vn -0.8533796 0.4386733 -0.2816184
vn -0.8533796 0.4386733 -0.2816184
vn -0.958007 0.06348765 -0.2796282
vn -0.9431095 -0.2175367 -0.2514406
vn -0.9431095 -0.2175367 -0.2514406
vn -0.5881013 0.7614363 0.2726747
vn -0.5038021 0.780616 0.3698947
vn -0.5881013 0.7614363 0.2726747
vn -0.5085173 0.7799261 0.3648635
vn -0.3410727 0.6959041 0.6319706
vn -0.3402919 0.6949003 0.6334942
vn -0.257899 0.3612414 0.8960987
vn -0.2575707 0.3718551 0.8918415
vn -0.2753677 -0.02120322 0.9611051
vn -0.2721899 0.01406746 0.9621407
vn -0.2839211 -0.1476263 0.9474151
vn -0.2839211 -0.1476263 0.9474151
vn -0.3619134 -0.4406741 0.8214774
vn -0.3447596 -0.4520308 0.8226839
vn -0.3619134 -0.4406741 0.8214774
vn -0.3438691 -0.4526125 0.8227369
vn -0.3937598 -0.4071643 0.8241181
vn -0.3972067 -0.4040873 0.8239784
vn -0.5522955 -0.294138 0.7800336
vn -0.5495712 -0.2958809 0.7812975
vn -0.7083858 -0.194143 0.6786
vn -0.7199932 -0.1866382 0.668413
vn -0.7866825 -0.1392844 0.6014403
vn -0.7866825 -0.1392844 0.6014403
g Fuzz_Eyebrows2_0
f 3/3/3 2/2/2 1/1/1
f 2/2/2 4/4/4 1/1/1
f 1/1/1 4/4/4 5/5/5
f 4/4/4 6/6/6 5/5/5
f 9/9/9 8/8/8 7/7/7
f 8/8/8 10/10/10 7/7/7
f 7/7/7 10/10/10 11/11/11
f 10/10/10 12/12/12 11/11/11
f 11/11/11 12/12/12 13/13/13
f 12/12/12 14/14/14 13/13/13
f 13/13/13 14/14/14 15/15/15
f 14/14/14 16/16/16 15/15/15
f 15/15/15 16/16/16 17/17/17
f 16/16/16 18/18/18 17/17/17
f 21/21/21 20/20/20 19/19/19
f 20/20/20 22/22/22 19/19/19
f 19/19/19 22/22/22 23/23/23
f 22/22/22 24/24/24 23/23/23
f 24/24/24 25/25/25 23/23/23
f 25/25/25 26/26/26 23/23/23
f 25/25/25 27/27/27 26/26/26
f 27/27/27 28/28/28 26/26/26
f 28/28/28 27/27/27 29/29/29
f 27/27/27 30/30/30 29/29/29
f 33/33/33 32/32/32 31/31/31
f 32/32/32 34/34/34 31/31/31
f 31/31/31 34/34/34 35/35/35
f 34/34/34 36/36/36 35/35/35
f 39/39/39 38/38/38 37/37/37
f 40/40/40 39/39/39 37/37/37
f 40/40/40 41/41/41 39/39/39
f 41/41/41 42/42/42 39/39/39
f 41/41/41 43/43/43 42/42/42
f 43/43/43 44/44/44 42/42/42
f 43/43/43 45/45/45 44/44/44
f 45/45/45 46/46/46 44/44/44
f 45/45/45 47/47/47 46/46/46
f 47/47/47 48/48/48 46/46/46
f 51/51/51 50/50/50 49/49/49
f 52/52/52 51/51/51 49/49/49
f 51/51/51 52/52/52 53/53/53
f 54/54/54 51/51/51 53/53/53
f 53/53/53 55/55/55 54/54/54
f 55/55/55 56/56/56 54/54/54
f 55/55/55 57/57/57 56/56/56
f 57/57/57 58/58/58 56/56/56
f 57/57/57 59/59/59 58/58/58
f 59/59/59 60/60/60 58/58/58
f 63/63/63 62/62/62 61/61/61
f 64/64/64 63/63/63 61/61/61
f 64/64/64 61/61/61 65/65/65
f 66/66/66 64/64/64 65/65/65
f 69/69/69 68/68/68 67/67/67
f 70/70/70 69/69/69 67/67/67
f 70/70/70 67/67/67 71/71/71
f 72/72/72 70/70/70 71/71/71
f 72/72/72 71/71/71 73/73/73
f 74/74/74 72/72/72 73/73/73
f 74/74/74 73/73/73 75/75/75
f 76/76/76 74/74/74 75/75/75
f 76/76/76 75/75/75 77/77/77
f 78/78/78 76/76/76 77/77/77
f 81/81/81 80/80/80 79/79/79
f 82/82/82 81/81/81 79/79/79
f 82/82/82 79/79/79 83/83/83
f 84/84/84 82/82/82 83/83/83
f 85/85/85 84/84/84 83/83/83
f 86/86/86 85/85/85 83/83/83
f 87/87/87 85/85/85 86/86/86
f 88/88/88 87/87/87 86/86/86
f 87/87/87 88/88/88 89/89/89
f 90/90/90 87/87/87 89/89/89
f 93/93/93 92/92/92 91/91/91
f 94/94/94 93/93/93 91/91/91
f 94/94/94 91/91/91 95/95/95
f 96/96/96 94/94/94 95/95/95
f 99/99/99 98/98/98 97/97/97
f 98/98/98 100/100/100 97/97/97
f 101/101/101 100/100/100 98/98/98
f 102/102/102 101/101/101 98/98/98
f 103/103/103 101/101/101 102/102/102
f 104/104/104 103/103/103 102/102/102
f 105/105/105 103/103/103 104/104/104
f 106/106/106 105/105/105 104/104/104
f 107/107/107 105/105/105 106/106/106
f 108/108/108 107/107/107 106/106/106
f 111/111/111 110/110/110 109/109/109
f 110/110/110 112/112/112 109/109/109
f 112/112/112 110/110/110 113/113/113
f 110/110/110 114/114/114 113/113/113
f 115/115/115 113/113/113 114/114/114
f 116/116/116 115/115/115 114/114/114
f 117/117/117 115/115/115 116/116/116
f 118/118/118 117/117/117 116/116/116
f 119/119/119 117/117/117 118/118/118
f 120/120/120 119/119/119 118/118/118
