g Top6_LP
v 0.04709381 1.678503 0.01267972
v 0.05999687 1.680697 -0.003739269
v 0.05724701 1.680347 -0.01028884
v 0 1.686498 -0.1235035
v 0.01593406 1.709289 -0.1091149
v 0 1.708965 -0.1112412
v 0.02262543 1.721875 -0.09346776
v 0 1.723415 -0.09552086
v 0 1.733418 -0.07344268
v 0.02451483 1.730294 -0.07253189
v -4.15858E-06 1.741407 -0.03772084
v 0.02624698 1.735598 -0.03826931
v 0.005901135 1.741394 -0.002999899
v 0.03142597 1.735749 -0.006322123
v 0.01490859 1.732896 0.02628892
v 0.03465243 1.729115 0.021039
v 0.02974772 1.71487 0.04420719
v 0.01616465 1.715429 0.04651077
v 0.02142996 1.691624 0.05346431
v 0.01317008 1.693523 0.05199893
v 0.01250124 1.680933 0.03854457
v 0.007628253 1.681187 0.04007595
v -0.02262543 1.721875 -0.09346776
v 0 1.708965 -0.1112412
v -0.02451483 1.730294 -0.07253189
v -4.15858E-06 1.741407 -0.03772084
v -0.02198241 1.710571 -0.1098853
v 0 1.686498 -0.1235035
v -0.03693837 1.720005 -0.08939795
v -0.04438392 1.726125 -0.07231483
v -0.01978815 1.737028 -0.03813432
v 0.005901135 1.741394 -0.002999899
v -0.04732121 1.727539 -0.03978773
v -0.026648 1.732591 -0.006327252
v -0.03502851 1.73266 -0.00682944
v -0.05271732 1.723622 -0.01006885
v 0.002550475 1.730148 0.02336984
v -0.0276223 1.723833 0.01695003
v -0.02467824 1.71119 0.03556793
v 0.001966733 1.713848 0.04217312
v -0.01518037 1.691189 0.04699351
v -0.04045393 1.723118 0.0141385
v -0.05406357 1.717469 0.008260947
v 0.007310065 1.692808 0.05206319
v -0.05419764 1.706219 0.01614575
v 0.003368216 1.680177 0.04003097
v -0.01590682 1.680355 0.03530177
v -0.03041046 1.679554 0.02888042
v -0.0338857 1.68988 0.03882628
v -0.04258032 1.709705 0.03126822
v -0.02467824 1.71119 0.03556793
v -0.04045393 1.723118 0.0141385
v -0.0276223 1.723833 0.01695003
v -0.03502851 1.73266 -0.00682944
v -0.026648 1.732591 -0.006327252
v -0.01978815 1.737028 -0.03813432
v -0.04258032 1.709705 0.03126822
v -0.05455878 1.688265 0.02094802
v -0.0338857 1.68988 0.03882628
v -0.03041046 1.679554 0.02888042
v -0.04692966 1.678503 0.01267972
v -0.05590127 1.680347 -0.01109958
v -0.06543396 1.698513 0.004732176
v -0.06924666 1.707598 -0.01575548
v -0.06508589 1.68939 -0.006422262
v -0.06543396 1.698513 0.004732176
v -0.06924666 1.707598 -0.01575548
v -0.05813296 1.686141 -0.04164153
v -0.06768044 1.696126 -0.04193015
v -0.06318025 1.70308 -0.01506627
v -0.06432278 1.710423 -0.04099441
v -0.0580283 1.698023 -0.07663286
v -0.05650285 1.712844 -0.07464665
v -0.04983072 1.687773 -0.07149092
v -0.05813296 1.686141 -0.04164153
v -0.03497008 1.684301 -0.09619333
v -0.04075142 1.693987 -0.1053518
v -0.01850767 1.679917 -0.1086721
v -0.02161231 1.688889 -0.1198594
v 8.206954E-05 1.677859 -0.1118065
v -0.04151886 1.712575 -0.1019435
v -0.03693837 1.720005 -0.08939795
v -0.04438392 1.726125 -0.07231483
v -0.04732121 1.727539 -0.03978773
v -0.06432278 1.710423 -0.04099441
v -0.05271732 1.723622 -0.01006885
v -0.06318025 1.70308 -0.01506627
v -0.05406357 1.717469 0.008260947
v -0.05419764 1.706219 0.01614575
v 0.05779628 1.690298 0.01137822
v 0.05999687 1.680697 -0.003739269
v 0.04709381 1.678503 0.01267972
v 0.06921784 1.691823 -0.001385279
v 0.05956939 1.704144 -0.004149089
v 0.0683267 1.705034 -0.01195277
v 0.06067955 1.707989 -0.01387186
v 0.0633435 1.710574 -0.04117793
v 0 1.686498 -0.1235035
v 8.206954E-05 1.677859 -0.1118065
v 0.01867181 1.679917 -0.1086721
v 0.02161231 1.688889 -0.1198594
v 0.03513423 1.684301 -0.09619333
v 0.01593406 1.709289 -0.1091149
v 0.04075142 1.693987 -0.1053518
v 0.04151886 1.712575 -0.1019435
v 0.037838 1.71852 -0.08833188
v 0.02262543 1.721875 -0.09346776
v 0.02451483 1.730294 -0.07253189
v 0.04564277 1.724391 -0.07191156
v 0.02624698 1.735598 -0.03826931
v 0.05005797 1.726595 -0.03995208
v 0.03142597 1.735749 -0.006322123
v 0.05271732 1.723622 -0.01006885
v 0.03465243 1.729115 0.021039
v 0.05272965 1.71737 0.008240253
v 0.04564277 1.724391 -0.07191156
v 0.05286372 1.70612 0.01612506
v 0.05650285 1.712844 -0.07464665
v 0.05005797 1.726595 -0.03995208
v 0.0633435 1.710574 -0.04117793
v 0.06067955 1.707989 -0.01387186
v 0.05271732 1.723622 -0.01006885
v 0.05272965 1.71737 0.008240253
v 0.05286372 1.70612 0.01612506
v 0.05956939 1.704144 -0.004149089
v 0.05779628 1.690298 0.01137822
v 0.05441005 1.689831 0.02052485
v 0.04709381 1.678503 0.01267972
v 0.02505626 1.680279 0.03459904
v 0.0287763 1.693064 0.0442028
v 0.0356109 1.711642 0.03621693
v 0.02974772 1.71487 0.04420719
v 0.0287763 1.693064 0.0442028
v 0.02142996 1.691624 0.05346431
v 0.01250124 1.680933 0.03854457
v 0.02505626 1.680279 0.03459904
v 0.005901135 1.741394 -0.002999899
v 0.01052377 1.736982 0.02827286
v 0.002550475 1.730148 0.02336984
v 0.009160947 1.717204 0.0483123
v 0.001966733 1.713848 0.04217312
v 0.007310065 1.692808 0.05206319
v 0.03513423 1.684301 -0.09619333
v 0.04999485 1.687773 -0.07149092
v 0.0580283 1.698023 -0.07663286
v 0.0582971 1.686141 -0.04164153
v 0.05650285 1.712844 -0.07464665
v 0.0633435 1.710574 -0.04117793
v 0.06768044 1.696126 -0.04193015
v 0.05724701 1.680347 -0.01028884
v 0.06318025 1.70308 -0.01506627
v 0.06600639 1.691266 -0.006795892
v 0.007628253 1.681187 0.04007595
v 0.003368216 1.680177 0.04003097
v 0.007310065 1.692808 0.05206319
v 0.01317008 1.693523 0.05199893
v 0.009160947 1.717204 0.0483123
v 0.01616465 1.715429 0.04651077
v 0.01052377 1.736982 0.02827286
v 0.01490859 1.732896 0.02628892
v 0.005901135 1.741394 -0.002999899
v 0.06318025 1.70308 -0.01506627
v 0.0683267 1.705034 -0.01195277
v 0.0633435 1.710574 -0.04117793
v 0.06600639 1.691266 -0.006795892
v 0.06921784 1.691823 -0.001385279
v 0.05724701 1.680347 -0.01028884
v 0.05999687 1.680697 -0.003739269
v -0.05419764 1.706219 0.01614575
v -0.06924666 1.707598 -0.01575548
v -0.06318025 1.70308 -0.01506627
v -0.06508589 1.68939 -0.006422262
vt 0.8060837 0.1783393
vt 0.7987773 0.2670875
vt 0.8290198 0.2867954
vt 0.6916919 0.8846295
vt 0.6536875 0.7597421
vt 0.6095475 0.809985
vt 0.6246467 0.6823676
vt 0.5490299 0.7367328
vt 0.5099217 0.6474375
vt 0.5894535 0.6071259
vt 0.4549521 0.5278222
vt 0.543952 0.4916572
vt 0.4200101 0.4022825
vt 0.5169559 0.3758695
vt 0.4094945 0.2703307
vt 0.4989559 0.2683301
vt 0.4720884 0.1646139
vt 0.4153949 0.151943
vt 0.4656363 0.07715267
vt 0.4385049 0.06537673
vt 0.4831715 0.008664987
vt 0.4651206 0
vt 0.4594205 0.7537088
vt 0.5578768 0.8301006
vt 0.4280694 0.6797519
vt 0.4549521 0.5278222
vt 0.4724663 0.8226867
vt 0.5474983 0.9416085
vt 0.4081066 0.7564251
vt 0.3668537 0.7083119
vt 0.3918789 0.5625079
vt 0.4200101 0.4022825
vt 0.3039111 0.6176934
vt 0.3117651 0.4745103
vt 0.2878999 0.4927686
vt 0.2315219 0.534102
vt 0.3447239 0.3037931
vt 0.2522659 0.403587
vt 0.1900257 0.3343239
vt 0.2553228 0.2275615
vt 0.1203019 0.2463078
vt 0.2230978 0.4444815
vt 0.1924448 0.4884253
vt 0.1687878 0.147883
vt 0.1560335 0.4714458
vt 0.07978804 0.1460193
vt 0.04431138 0.2377548
vt 0.008681135 0.3086925
vt 0.07736257 0.3355325
vt 0.1599824 0.4006025
vt 0.1900257 0.3343239
vt 0.2230978 0.4444815
vt 0.2522659 0.403587
vt 0.2878999 0.4927686
vt 0.3117651 0.4745103
vt 0.3918789 0.5625079
vt 0.1599824 0.4006025
vt 0.07192402 0.46437
vt 0.07736257 0.3355325
vt 0 0.3588355
vt 0.002789895 0.4836383
vt 0.03544456 0.6164539
vt 0.1153245 0.5317498
vt 0.1405864 0.5617858
vt 0.08741638 0.5868571
vt 0.1153245 0.5317498
vt 0.1405864 0.5617858
vt 0.1263397 0.7386979
vt 0.1861186 0.7079592
vt 0.155567 0.5821121
vt 0.2295006 0.6704828
vt 0.2944916 0.7945457
vt 0.3239737 0.7488185
vt 0.2584099 0.8352302
vt 0.1572897 0.7570469
vt 0.3560274 0.9094209
vt 0.3911978 0.8643569
vt 0.4353283 0.9612921
vt 0.4642499 0.9067392
vt 0.5140747 0.9999999
vt 0.4041868 0.8043088
vt 0.4081066 0.7564251
vt 0.3668537 0.7083119
vt 0.3039111 0.6176934
vt 0.2295006 0.6704828
vt 0.2315219 0.534102
vt 0.155567 0.5821121
vt 0.1924448 0.4884253
vt 0.1560335 0.4714458
vt 0.7413617 0.2160786
vt 0.7987773 0.2670875
vt 0.8060837 0.1783393
vt 0.7484701 0.2846439
vt 0.6855903 0.2924048
vt 0.7130052 0.3339663
vt 0.6807374 0.34113
vt 0.7079946 0.4472043
vt 0.6916919 0.8846295
vt 0.7525977 0.9055701
vt 0.785714 0.8283788
vt 0.7307324 0.8044383
vt 0.8241413 0.7440066
vt 0.6536875 0.7597421
vt 0.7682602 0.7138377
vt 0.7032412 0.6756572
vt 0.6666703 0.6399702
vt 0.6246467 0.6823676
vt 0.5894535 0.6071259
vt 0.6580647 0.5747395
vt 0.543952 0.4916572
vt 0.6324511 0.4644487
vt 0.5169559 0.3758695
vt 0.6087865 0.3561523
vt 0.4989559 0.2683301
vt 0.5939378 0.2841451
vt 0.6580647 0.5747395
vt 0.609166 0.2320126
vt 0.7122545 0.5722012
vt 0.6324511 0.4644487
vt 0.7079946 0.4472043
vt 0.6807374 0.34113
vt 0.6087865 0.3561523
vt 0.5939378 0.2841451
vt 0.609166 0.2320126
vt 0.6734684 0.2954856
vt 0.6751134 0.2034878
vt 0.6455022 0.1761377
vt 0.6964503 0.1376063
vt 0.5992836 0.04462156
vt 0.5360051 0.08243742
vt 0.5113701 0.1749211
vt 0.4720884 0.1646139
vt 0.5061806 0.08884073
vt 0.4656363 0.07715267
vt 0.4831715 0.008664987
vt 0.5312501 0.02888566
vt 0.4200101 0.4022825
vt 0.3846948 0.2806397
vt 0.3447239 0.3037931
vt 0.3414836 0.1828065
vt 0.30124 0.2033901
vt 0.2788149 0.09518589
vt 0.8290198 0.6969224
vt 0.8242718 0.5722148
vt 0.7678673 0.5780476
vt 0.8214807 0.4413424
vt 0.7122545 0.5722012
vt 0.7079946 0.4472043
vt 0.7680121 0.4428392
vt 0.8268619 0.3134194
vt 0.7306951 0.3492834
vt 0.7678624 0.307788
vt 0.2427198 0.02222676
vt 0.2223914 0.02872808
vt 0.2788149 0.09518589
vt 0.3053025 0.08393154
vt 0.3414836 0.1828065
vt 0.3675655 0.1664831
vt 0.3846948 0.2806397
vt 0.4094945 0.2703307
vt 0.4200101 0.4022825
vt 0.7306951 0.3492834
vt 0.7130052 0.3339663
vt 0.7079946 0.4472043
vt 0.7678624 0.307788
vt 0.7484701 0.2846439
vt 0.8290198 0.2867954
vt 0.7987773 0.2670875
vt 0.1560335 0.4714458
vt 0.1405864 0.5617858
vt 0.155567 0.5821121
vt 0.08741638 0.5868571
vn 0.1532181 -0.9881234 -0.01168254
vn 0.1532181 -0.9881234 -0.01168254
vn 0.1532181 -0.9881234 -0.01168254
vn 0.01037224 -0.2483364 -0.9686184
vn 0.1001596 0.6663337 -0.7388961
vn 0.03499984 0.623046 -0.7814017
vn 0.1080505 0.8518822 -0.5124663
vn 0.01261724 0.8475983 -0.5304884
vn 0.001414503 0.9548371 -0.2971261
vn 0.1453966 0.946249 -0.2889165
vn 0.1923923 0.9745547 -0.115015
vn 0.193775 0.9748574 -0.1100189
vn 0.2253926 0.9715407 0.07284809
vn 0.2266599 0.970178 0.08590719
vn 0.2405218 0.8842996 0.4002044
vn 0.2405655 0.8940326 0.3779337
vn 0.1772584 0.6139193 0.7692091
vn 0.1548595 0.5484408 0.8217245
vn -0.007237452 -0.1449375 0.9894143
vn -0.0309202 -0.2758937 0.9606907
vn -0.115042 -0.7224612 0.6817735
vn -0.115042 -0.7224612 0.6817735
vn -0.1601615 0.8510915 -0.4999915
vn 0.03499984 0.623046 -0.7814017
vn -0.1956472 0.942325 -0.2715619
vn -0.2119906 0.9756589 -0.05612183
vn -0.2050488 0.5932018 -0.7785028
vn 0.01037224 -0.2483364 -0.9686184
vn -0.2229768 0.8703706 -0.4390174
vn -0.2471494 0.940372 -0.2337044
vn -0.2565487 0.9644791 -0.06295122
vn -0.2621805 0.9420211 0.2094223
vn -0.3292396 0.9427459 -0.05321172
vn -0.2622766 0.9417161 0.2106696
vn -0.4212555 0.9007262 0.1060004
vn -0.4308209 0.8926412 0.1326086
vn -0.2648283 0.8373615 0.4782172
vn -0.2781636 0.8495328 0.44824
vn -0.2622946 0.6287108 0.7320685
vn -0.4952806 0.484883 0.7208228
vn -0.2711881 -0.2039329 0.9406745
vn -0.5642007 0.727047 0.3912548
vn -0.5625699 0.7296616 0.3887273
vn -0.06411505 -0.2575291 0.9641411
vn -0.7270754 0.3384084 0.5973617
vn -0.04325278 -0.7034902 0.7093875
vn -0.2038034 -0.7018214 0.6825766
vn -0.245639 -0.7084612 0.6616224
vn -0.3377635 -0.1960256 0.9205921
vn -0.2619949 0.603116 0.7533987
vn -0.2879263 0.5048208 0.8137902
vn -0.1401354 0.8656771 0.4805884
vn -0.1465886 0.857298 0.49351
vn -0.0517362 0.9590054 0.2786252
vn -0.04172876 0.966923 0.2516322
vn -0.0001348668 0.9904138 0.1381314
vn -0.7130899 0.2652808 0.6489444
vn -0.7291785 -0.3811153 0.5683748
vn -0.6281859 -0.3925447 0.6717821
vn -0.4365518 -0.7246941 0.5331424
vn -0.5673954 -0.7404281 0.3603175
vn -0.6963534 -0.7154871 0.05630364
vn -0.770801 0.4361743 0.4643466
vn -0.7533465 0.5376948 0.3786205
vn -0.8811379 -0.4551218 0.1282975
vn -0.9149538 -0.3259031 0.2380058
vn -0.9797728 -0.1687964 0.1074852
vn -0.7119417 -0.6852129 -0.1536958
vn -0.9627704 -0.2438262 -0.1167134
vn -0.9712411 0.2123279 0.1077389
vn -0.9767759 0.1996216 -0.07784679
vn -0.8917623 -0.2682175 -0.364444
vn -0.8322506 0.45278 -0.3199208
vn -0.6832966 -0.6799436 -0.2660497
vn -0.7119417 -0.6852129 -0.1536958
vn -0.601691 -0.7082746 -0.3692088
vn -0.7089106 -0.2629496 -0.6544487
vn -0.3630507 -0.7734556 -0.5195772
vn -0.3778188 -0.2524275 -0.8908048
vn 0.0007120504 -0.8044217 -0.5940582
vn -0.5599242 0.5311073 -0.6359323
vn -0.448213 0.7876754 -0.4226968
vn -0.6492887 0.7211245 -0.2416685
vn -0.7635829 0.6450609 -0.02894144
vn -0.7705421 0.6371464 -0.01759437
vn -0.8795851 0.4630307 0.1092368
vn -0.8720596 0.4785058 0.1026858
vn -0.9313976 0.3252907 0.163354
vn -0.9313976 0.3252907 0.163354
vn 0.7365144 -0.315071 0.5985623
vn 0.655089 -0.5910115 0.4707057
vn 0.655089 -0.5910115 0.4707057
vn 0.7144087 0.1782695 0.6766389
vn 0.486132 0.6676893 0.5637967
vn 0.397459 0.8321736 0.3866696
vn 0.2984285 0.9249711 0.2353058
vn 0.3313093 0.9357484 0.1208685
vn 0.01037224 -0.2483364 -0.9686184
vn 0.0007120504 -0.8044217 -0.5940582
vn 0.3652096 -0.7707101 -0.5221378
vn 0.3719827 -0.2200168 -0.9017879
vn 0.605283 -0.7034017 -0.3726373
vn 0.2458729 0.5442395 -0.8020909
vn 0.6946756 -0.2342405 -0.6801156
vn 0.5384715 0.5331539 -0.6525301
vn 0.3479806 0.8312493 -0.4335136
vn 0.2125452 0.8456849 -0.489532
vn 0.3000966 0.9133114 -0.275326
vn 0.3021261 0.9196317 -0.2509929
vn 0.3671752 0.9271776 -0.07432377
vn 0.3689997 0.9266092 -0.07235023
vn 0.4974318 0.8632087 0.08621085
vn 0.498433 0.8624905 0.08760589
vn 0.6889955 0.60868 0.3934385
vn 0.6575928 0.6622512 0.3591589
vn 0.6414893 0.7266786 -0.2458244
vn 0.7298477 0.3067132 0.6109413
vn 0.640854 0.7269998 -0.2465309
vn 0.7896938 0.6123215 -0.03802954
vn 0.791678 0.6099748 -0.03430406
vn 0.8863838 0.444085 0.1308134
vn 0.8877454 0.4406566 0.1331532
vn 0.9233862 0.3215441 0.2096836
vn 0.9304504 0.2465629 0.2710512
vn 0.9272269 0.2922183 0.2342194
vn 0.9457174 -0.08953159 0.3124143
vn 0.7994713 -0.2746832 0.5342235
vn 0.5722288 -0.6565471 0.4914266
vn 0.4904743 -0.6469516 0.5838567
vn 0.6578539 -0.3019059 0.6899863
vn 0.7792181 0.2466404 0.5761837
vn 0.8189795 0.1259025 0.5598403
vn 0.6679299 -0.3951567 0.6306512
vn 0.6067796 -0.5001512 0.6177923
vn 0.3811013 -0.7581219 0.5291626
vn 0.3811013 -0.7581219 0.5291626
vn -0.7056872 0.6796525 0.2001949
vn -0.711298 0.6080375 0.3526266
vn -0.7116591 0.6163806 0.3370702
vn -0.7110535 0.3689106 0.5985883
vn -0.4952806 0.484883 0.7208228
vn -0.06411505 -0.2575291 0.9641411
vn 0.605283 -0.7034017 -0.3726373
vn 0.6883253 -0.6740111 -0.2681743
vn 0.8955907 -0.2580851 -0.3623663
vn 0.7350788 -0.6607075 -0.1520683
vn 0.9194541 0.1600811 -0.3591355
vn 0.9654428 0.2475988 -0.08133301
vn 0.9702817 -0.2107185 -0.1189584
vn 0.7587002 -0.6473761 -0.07265157
vn 0.9546365 0.2850438 0.0861349
vn 0.9389811 -0.3435952 -0.01602662
vn 0.1225177 -0.7109588 0.692479
vn -0.04325278 -0.7034902 0.7093875
vn -0.06411505 -0.2575291 0.9641411
vn 0.160129 -0.1926655 0.9681109
vn 0.3635474 0.4359019 0.8232999
vn 0.3546011 0.4247447 0.8329766
vn 0.6320704 0.7151983 0.2982925
vn 0.6214055 0.7084283 0.3346408
vn 0.6822808 0.7310866 0.00229912
vn 0.6057493 -0.6797498 -0.4135311
vn 0.6617625 -0.5625554 -0.4955823
vn 0.468549 -0.8499318 -0.240993
vn 0.7551988 -0.4500318 -0.4765987
vn 0.7541819 -0.4462766 -0.4817124
vn 0.7703866 -0.5373047 -0.3432319
vn 0.7703866 -0.5373047 -0.3432319
vn 0.5965862 0.763122 -0.2484549
vn 0.4043859 0.4189426 -0.8129939
vn 0.2394252 0.1758126 -0.9548641
vn -0.2685248 -0.4872939 -0.8309266
g Top6_LP_0
f 3/3/3 2/2/2 1/1/1
f 6/6/6 5/5/5 4/4/4
f 7/7/7 5/5/5 6/6/6
f 8/8/8 7/7/7 6/6/6
f 8/8/8 9/9/9 7/7/7
f 9/9/9 10/10/10 7/7/7
f 9/9/9 11/11/11 10/10/10
f 11/11/11 12/12/12 10/10/10
f 11/11/11 13/13/13 12/12/12
f 13/13/13 14/14/14 12/12/12
f 13/13/13 15/15/15 14/14/14
f 15/15/15 16/16/16 14/14/14
f 16/16/16 15/15/15 17/17/17
f 15/15/15 18/18/18 17/17/17
f 17/17/17 18/18/18 19/19/19
f 18/18/18 20/20/20 19/19/19
f 19/19/19 20/20/20 21/21/21
f 20/20/20 22/22/22 21/21/21
f 9/9/9 8/8/8 23/23/23
f 23/23/23 8/8/8 24/24/24
f 25/25/25 9/9/9 23/23/23
f 26/26/26 9/9/9 25/25/25
f 27/27/27 23/23/23 24/24/24
f 24/24/24 28/28/28 27/27/27
f 25/25/25 23/23/23 29/29/29
f 23/23/23 27/27/27 29/29/29
f 30/30/30 25/25/25 29/29/29
f 31/31/31 26/26/26 25/25/25
f 31/31/31 25/25/25 30/30/30
f 32/32/32 26/26/26 31/31/31
f 33/33/33 31/31/31 30/30/30
f 34/34/34 32/32/32 31/31/31
f 35/35/35 31/31/31 33/33/33
f 36/36/36 35/35/35 33/33/33
f 37/37/37 32/32/32 34/34/34
f 38/38/38 37/37/37 34/34/34
f 38/38/38 39/39/39 37/37/37
f 40/40/40 37/37/37 39/39/39
f 40/40/40 39/39/39 41/41/41
f 42/42/42 35/35/35 36/36/36
f 43/43/43 42/42/42 36/36/36
f 44/44/44 40/40/40 41/41/41
f 42/42/42 43/43/43 45/45/45
f 44/44/44 41/41/41 46/46/46
f 41/41/41 47/47/47 46/46/46
f 48/48/48 47/47/47 41/41/41
f 49/49/49 48/48/48 41/41/41
f 49/49/49 41/41/41 50/50/50
f 41/41/41 51/51/51 50/50/50
f 50/50/50 51/51/51 52/52/52
f 51/51/51 53/53/53 52/52/52
f 52/52/52 53/53/53 54/54/54
f 53/53/53 55/55/55 54/54/54
f 54/54/54 55/55/55 56/56/56
f 57/57/57 42/42/42 45/45/45
f 57/57/57 45/45/45 58/58/58
f 59/59/59 57/57/57 58/58/58
f 59/59/59 58/58/58 60/60/60
f 58/58/58 61/61/61 60/60/60
f 62/62/62 61/61/61 58/58/58
f 63/63/63 58/58/58 45/45/45
f 63/63/63 45/45/45 64/64/64
f 65/65/65 62/62/62 58/58/58
f 66/66/66 65/65/65 58/58/58
f 67/67/67 65/65/65 66/66/66
f 68/68/68 62/62/62 65/65/65
f 69/69/69 68/68/68 65/65/65
f 65/65/65 70/70/70 69/69/69
f 70/70/70 71/71/71 69/69/69
f 69/69/69 71/71/71 72/72/72
f 71/71/71 73/73/73 72/72/72
f 72/72/72 74/74/74 69/69/69
f 74/74/74 75/75/75 69/69/69
f 76/76/76 74/74/74 72/72/72
f 77/77/77 76/76/76 72/72/72
f 72/72/72 73/73/73 77/77/77
f 78/78/78 76/76/76 77/77/77
f 79/79/79 78/78/78 77/77/77
f 80/80/80 78/78/78 79/79/79
f 28/28/28 80/80/80 79/79/79
f 79/79/79 27/27/27 28/28/28
f 77/77/77 81/81/81 79/79/79
f 81/81/81 27/27/27 79/79/79
f 73/73/73 81/81/81 77/77/77
f 81/81/81 82/82/82 27/27/27
f 83/83/83 82/82/82 81/81/81
f 73/73/73 83/83/83 81/81/81
f 84/84/84 83/83/83 73/73/73
f 85/85/85 84/84/84 73/73/73
f 86/86/86 84/84/84 85/85/85
f 87/87/87 86/86/86 85/85/85
f 86/86/86 87/87/87 88/88/88
f 87/87/87 89/89/89 88/88/88
f 92/92/92 91/91/91 90/90/90
f 91/91/91 93/93/93 90/90/90
f 90/90/90 93/93/93 94/94/94
f 93/93/93 95/95/95 94/94/94
f 94/94/94 95/95/95 96/96/96
f 96/96/96 95/95/95 97/97/97
f 100/100/100 99/99/99 98/98/98
f 101/101/101 100/100/100 98/98/98
f 102/102/102 100/100/100 101/101/101
f 101/101/101 98/98/98 103/103/103
f 104/104/104 102/102/102 101/101/101
f 103/103/103 105/105/105 101/101/101
f 105/105/105 104/104/104 101/101/101
f 106/106/106 105/105/105 103/103/103
f 107/107/107 106/106/106 103/103/103
f 107/107/107 108/108/108 106/106/106
f 108/108/108 109/109/109 106/106/106
f 108/108/108 110/110/110 109/109/109
f 110/110/110 111/111/111 109/109/109
f 110/110/110 112/112/112 111/111/111
f 112/112/112 113/113/113 111/111/111
f 112/112/112 114/114/114 113/113/113
f 114/114/114 115/115/115 113/113/113
f 106/106/106 116/116/116 105/105/105
f 115/115/115 114/114/114 117/117/117
f 116/116/116 118/118/118 105/105/105
f 116/116/116 119/119/119 118/118/118
f 119/119/119 120/120/120 118/118/118
f 120/120/120 119/119/119 121/121/121
f 119/119/119 122/122/122 121/121/121
f 121/121/121 122/122/122 123/123/123
f 121/121/121 123/123/123 124/124/124
f 124/124/124 125/125/125 121/121/121
f 125/125/125 124/124/124 126/126/126
f 124/124/124 127/127/127 126/126/126
f 126/126/126 127/127/127 128/128/128
f 129/129/129 128/128/128 127/127/127
f 130/130/130 129/129/129 127/127/127
f 131/131/131 130/130/130 127/127/127
f 117/117/117 131/131/131 127/127/127
f 114/114/114 131/131/131 117/117/117
f 114/114/114 132/132/132 131/131/131
f 131/131/131 132/132/132 133/133/133
f 132/132/132 134/134/134 133/133/133
f 134/134/134 135/135/135 133/133/133
f 135/135/135 136/136/136 133/133/133
f 139/139/139 138/138/138 137/137/137
f 140/140/140 138/138/138 139/139/139
f 141/141/141 140/140/140 139/139/139
f 142/142/142 140/140/140 141/141/141
f 144/144/144 143/143/143 104/104/104
f 145/145/145 144/144/144 104/104/104
f 146/146/146 144/144/144 145/145/145
f 147/147/147 145/145/145 104/104/104
f 105/105/105 147/147/147 104/104/104
f 147/147/147 148/148/148 145/145/145
f 149/149/149 146/146/146 145/145/145
f 148/148/148 149/149/149 145/145/145
f 150/150/150 146/146/146 149/149/149
f 148/148/148 151/151/151 149/149/149
f 152/152/152 150/150/150 149/149/149
f 151/151/151 152/152/152 149/149/149
f 155/155/155 154/154/154 153/153/153
f 156/156/156 155/155/155 153/153/153
f 157/157/157 155/155/155 156/156/156
f 158/158/158 157/157/157 156/156/156
f 159/159/159 157/157/157 158/158/158
f 160/160/160 159/159/159 158/158/158
f 161/161/161 159/159/159 160/160/160
f 164/164/164 163/163/163 162/162/162
f 162/162/162 163/163/163 165/165/165
f 163/163/163 166/166/166 165/165/165
f 165/165/165 166/166/166 167/167/167
f 166/166/166 168/168/168 167/167/167
f 171/171/171 170/170/170 169/169/169
f 172/172/172 170/170/170 171/171/171
