g CorporealFlesh_Female_Naked_NeckCap
v -3.522943E-09 1.485818 -0.08086675
v 0 1.49034 -0.101301
v 0.01546991 1.491999 -0.1000306
v 0.0129573 1.486773 -0.0799106
v 0.03194969 1.49358 -0.09495639
v 0.02515414 1.488436 -0.07651782
v 0.04438577 1.494697 -0.08189871
v 0.03490728 1.489396 -0.06984754
v 0.05294014 1.488715 -0.06558776
v 0.04158285 1.487419 -0.06267262
v 0.05388926 1.482703 -0.04965113
v 0.04105807 1.482895 -0.05159533
v 0.05175906 1.473485 -0.03719148
v 0.03248196 1.483292 -0.05293276
v 0.02270953 1.481316 -0.05277451
v 0.01155458 1.479326 -0.0521895
v -8.867131E-09 1.478491 -0.0519545
v 0.04116963 1.476958 -0.04228988
v 0.04388802 1.471243 -0.02886278
v 0.03441714 1.475391 -0.03848911
v 0.03031569 1.463321 -0.01686138
v 0.02392835 1.471189 -0.03230337
v 0.01455722 1.460085 -0.01064763
v 0.01186889 1.468327 -0.02811574
v 0 1.458715 -0.008510868
v -3.66506E-09 1.467281 -0.02672495
v -0.01455722 1.460085 -0.01064763
v -0.0118689 1.468327 -0.02811575
v -0.03031569 1.463321 -0.01686138
v -0.01155459 1.479326 -0.05218951
v -0.01295731 1.486773 -0.07991061
v -0.02392836 1.471189 -0.03230338
v -0.04388802 1.471243 -0.02886278
v -0.02270954 1.481316 -0.05277453
v -0.02515415 1.488436 -0.07651784
v -0.03441714 1.475391 -0.03848912
v -0.05175906 1.473485 -0.03719148
v -0.04116963 1.476958 -0.04228988
v -0.03248197 1.483292 -0.05293278
v -0.03490728 1.489396 -0.06984755
v -0.04105807 1.482895 -0.05159534
v -0.04158285 1.487419 -0.06267262
v -0.01295731 1.486773 -0.07991061
v 0 1.49034 -0.101301
v -3.522943E-09 1.485818 -0.08086675
v -0.01546991 1.491999 -0.1000306
v -0.02515415 1.488436 -0.07651784
v -0.03194969 1.49358 -0.09495639
v -0.03490728 1.489396 -0.06984755
v -0.04438577 1.494697 -0.08189871
v -0.04158285 1.487419 -0.06267262
v -0.05294014 1.488715 -0.06558776
v -0.04105807 1.482895 -0.05159534
v -0.05388926 1.482703 -0.04965113
v -0.04116963 1.476958 -0.04228988
v -0.05175906 1.473485 -0.03719148
vt 0.5436938 0.7986583
vt 0.6649383 0.8202052
vt 0.6553899 0.8181139
vt 0.5459744 0.8004221
vt 0.6446394 0.8171026
vt 0.5327104 0.8005775
vt 0.633726 0.8197978
vt 0.461409 0.7938031
vt 0.1425631 0.7671071
vt 0.2959005 0.7754904
vt 0.1526464 0.7638986
vt 0.2263191 0.7648765
vt 0.1615745 0.7603637
vt 0.2566556 0.763444
vt 0.2822932 0.7610729
vt 0.2912494 0.756934
vt 0.2905496 0.7519523
vt 0.2085715 0.7598502
vt 0.1647605 0.7539679
vt 0.2098715 0.7561385
vt 0.1710325 0.7436401
vt 0.2036424 0.7459618
vt 0.1726173 0.7331663
vt 0.202045 0.7379451
vt 0.1721393 0.7241206
vt 0.1996198 0.7312022
vt 0.1690245 0.7156152
vt 0.1980782 0.7252637
vt 0.1634515 0.7066068
vt 0.2815706 0.7458736
vt 0.5279372 0.7950162
vt 0.1947125 0.7189226
vt 0.1536256 0.6995744
vt 0.2540222 0.7357949
vt 0.4547134 0.778725
vt 0.1925597 0.7139756
vt 0.1481829 0.6949453
vt 0.1873843 0.7112575
vt 0.2120373 0.7222581
vt 0.30124 0.74293
vt 0.1925658 0.7130723
vt 0.2087973 0.7188054
vt 0.5279372 0.7950162
vt 0.6649383 0.8202052
vt 0.5436938 0.7986583
vt 0.6736079 0.8247198
vt 0.4547134 0.778725
vt 0.6825082 0.8308344
vt 0.30124 0.74293
vt 0.1172362 0.7014918
vt 0.2087973 0.7188054
vt 0.1280509 0.6962148
vt 0.1925658 0.7130723
vt 0.1385839 0.6952029
vt 0.1873843 0.7112575
vt 0.1481829 0.6949453
vn 0.001167515 0.9710895 0.2387132
vn 0 0.9737988 0.2274116
vn -0.1389027 0.9651794 0.2216635
vn -0.09204102 0.9651384 0.2450229
vn -0.2090843 0.9562731 0.2045125
vn -0.1969348 0.9661312 0.1667546
vn -0.1756182 0.9514821 0.2526656
vn -0.1515013 0.9564559 0.2494781
vn -0.03744136 0.9339037 0.3555586
vn -0.04223772 0.9348055 0.3526394
vn -0.03581089 0.8787466 0.4759432
vn 0.007983665 0.8871332 0.4614443
vn 0.01919889 0.8820769 0.4707141
vn -0.1076273 0.9134152 0.3925417
vn -0.158306 0.9204977 0.3572437
vn -0.09899904 0.9352651 0.3398212
vn 0 0.9424872 0.3342422
vn 0.0145735 0.8916129 0.4525639
vn -0.009513903 0.9027236 0.4301158
vn -0.05427837 0.886986 0.4585954
vn -0.05151056 0.8877983 0.4573411
vn -0.08804326 0.8990334 0.4289373
vn -0.02722258 0.8996238 0.4358163
vn -0.04424741 0.8973727 0.4390495
vn 0 0.9039133 0.4277159
vn 0 0.9064107 0.4223974
vn 0.0272225 0.8996238 0.4358162
vn 0.0352318 0.904493 0.4250307
vn 0.05151081 0.8877996 0.4573385
vn 0.09899886 0.9352657 0.3398197
vn 0.1364736 0.9511408 0.2769587
vn 0.05863764 0.8954286 0.4413267
vn 0.009514363 0.902725 0.4301127
vn 0.1583085 0.9204974 0.3572436
vn 0.1441459 0.96073 0.2371074
vn 0.03984181 0.8844333 0.4649625
vn -0.01919887 0.8820759 0.470716
vn -0.04766557 0.8636143 0.5018948
vn 0.1076279 0.9134147 0.3925427
vn 0.123864 0.9479612 0.2933041
vn 0.01306456 0.9088044 0.4170178
vn 0.04152844 0.9344521 0.3536591
vn 0.1364736 0.9511408 0.2769587
vn 0 0.9737988 0.2274116
vn 0.001167515 0.9710895 0.2387132
vn 0.1389027 0.9651794 0.2216636
vn 0.1441459 0.96073 0.2371074
vn 0.2090843 0.9562731 0.2045127
vn 0.123864 0.9479612 0.2933041
vn 0.1756181 0.9514821 0.2526657
vn 0.04152844 0.9344521 0.3536591
vn 0.03744159 0.9339037 0.3555586
vn 0.01306456 0.9088044 0.4170178
vn 0.03581083 0.8787454 0.4759455
vn -0.04766557 0.8636143 0.5018948
vn -0.01919887 0.8820759 0.470716
g CorporealFlesh_Female_Naked_NeckCap_0
f 3/3/3 2/2/2 1/1/1
f 4/4/4 3/3/3 1/1/1
f 5/5/5 3/3/3 4/4/4
f 6/6/6 5/5/5 4/4/4
f 7/7/7 5/5/5 6/6/6
f 8/8/8 7/7/7 6/6/6
f 9/9/9 7/7/7 8/8/8
f 10/10/10 9/9/9 8/8/8
f 11/11/11 9/9/9 10/10/10
f 12/12/12 11/11/11 10/10/10
f 13/13/13 11/11/11 12/12/12
f 8/8/8 14/14/14 10/10/10
f 14/14/14 12/12/12 10/10/10
f 6/6/6 15/15/15 8/8/8
f 15/15/15 14/14/14 8/8/8
f 4/4/4 16/16/16 6/6/6
f 16/16/16 15/15/15 6/6/6
f 1/1/1 17/17/17 4/4/4
f 17/17/17 16/16/16 4/4/4
f 18/18/18 13/13/13 12/12/12
f 19/19/19 13/13/13 18/18/18
f 20/20/20 18/18/18 12/12/12
f 20/20/20 19/19/19 18/18/18
f 14/14/14 20/20/20 12/12/12
f 21/21/21 19/19/19 20/20/20
f 22/22/22 20/20/20 14/14/14
f 22/22/22 21/21/21 20/20/20
f 15/15/15 22/22/22 14/14/14
f 23/23/23 21/21/21 22/22/22
f 24/24/24 22/22/22 15/15/15
f 24/24/24 23/23/23 22/22/22
f 16/16/16 24/24/24 15/15/15
f 25/25/25 23/23/23 24/24/24
f 26/26/26 24/24/24 16/16/16
f 26/26/26 25/25/25 24/24/24
f 17/17/17 26/26/26 16/16/16
f 27/27/27 25/25/25 26/26/26
f 28/28/28 27/27/27 26/26/26
f 28/28/28 26/26/26 17/17/17
f 29/29/29 27/27/27 28/28/28
f 30/30/30 28/28/28 17/17/17
f 30/30/30 17/17/17 1/1/1
f 31/31/31 30/30/30 1/1/1
f 32/32/32 29/29/29 28/28/28
f 32/32/32 28/28/28 30/30/30
f 33/33/33 29/29/29 32/32/32
f 34/34/34 30/30/30 31/31/31
f 34/34/34 32/32/32 30/30/30
f 35/35/35 34/34/34 31/31/31
f 36/36/36 33/33/33 32/32/32
f 36/36/36 32/32/32 34/34/34
f 37/37/37 33/33/33 36/36/36
f 38/38/38 37/37/37 36/36/36
f 39/39/39 34/34/34 35/35/35
f 39/39/39 36/36/36 34/34/34
f 38/38/38 36/36/36 39/39/39
f 40/40/40 39/39/39 35/35/35
f 41/41/41 38/38/38 39/39/39
f 41/41/41 39/39/39 40/40/40
f 42/42/42 41/41/41 40/40/40
f 45/45/45 44/44/44 43/43/43
f 44/44/44 46/46/46 43/43/43
f 43/43/43 46/46/46 47/47/47
f 46/46/46 48/48/48 47/47/47
f 47/47/47 48/48/48 49/49/49
f 48/48/48 50/50/50 49/49/49
f 49/49/49 50/50/50 51/51/51
f 50/50/50 52/52/52 51/51/51
f 51/51/51 52/52/52 53/53/53
f 52/52/52 54/54/54 53/53/53
f 53/53/53 54/54/54 55/55/55
f 54/54/54 56/56/56 55/55/55
