g Toung
v -0.007408748 1.57551 -0.04023892
v -0.01996266 1.574598 -0.02176759
v -0.01904581 1.57243 -0.03956364
v -0.00783772 1.577666 -0.02217433
v -0.01961668 1.573973 0.002032134
v 0.007837763 1.577666 -0.02217431
v 0.007408847 1.57551 -0.04023889
v 0.01904591 1.57243 -0.03956357
v 0.0199627 1.574598 -0.02176752
v 0.008012987 1.576679 0.002734755
v 0.01989805 1.573973 0.002032198
v -0.007681702 1.576679 0.00273473
v -0.00762517 1.570603 0.02050865
v -0.01693462 1.568676 0.01994266
v 0.007859403 1.570596 0.02050728
v 0.01713118 1.568675 0.01994264
v 0.002544499 1.565127 0.0367161
v 0.01144733 1.56572 0.03223566
v 0.0120555 1.562435 0.03673729
v 0.002655612 1.561551 0.04009563
v 0.01846837 1.563843 0.03131491
v -0.002544637 1.565127 0.0367161
v -0.00265576 1.561551 0.04009563
v 0.01525469 1.566414 0.02733705
v 0.02021192 1.566281 0.02078428
v 0.02262105 1.569825 0.001976583
v 0.01989805 1.573973 0.002032198
v 0.02417184 1.568743 -0.02071391
v 0.0199627 1.574598 -0.02176752
v 0.02324542 1.566878 -0.03830448
v 0.01904591 1.57243 -0.03956357
v -0.01144037 1.565722 0.03221868
v -0.01205563 1.562435 0.03673726
v -0.01521185 1.566414 0.02733704
v -0.0184685 1.563843 0.03131485
v -0.02008655 1.566281 0.02078419
v -0.01961668 1.573973 0.002032134
v -0.02238794 1.569825 0.001976512
v -0.01996266 1.574598 -0.02176759
v -0.02417179 1.568743 -0.02071399
v -0.01904581 1.57243 -0.03956364
v -0.02324532 1.566878 -0.03830456
v 0.007408848 1.558277 -0.03634339
v 0.0199627 1.562878 -0.01978557
v 0.01904591 1.561335 -0.03706019
v 0.007837764 1.559826 -0.01916374
v 0.01984089 1.562518 0.0008146187
v -0.007837718 1.559826 -0.01916376
v -0.007408746 1.558277 -0.03634342
v -0.01904581 1.561335 -0.03706025
v -0.01996266 1.562878 -0.01978563
v -0.007755421 1.559799 0.0006949318
v -0.01967384 1.562518 0.0008145545
v 0.007939267 1.559799 0.0006949583
v 0.007742244 1.557846 0.02040197
v 0.01703286 1.559953 0.02029498
v -0.007742326 1.557846 0.02040195
v -0.01703294 1.559953 0.02029491
v -0.00254463 1.556181 0.03472243
v -0.01149378 1.557603 0.0306156
v -0.01205527 1.558647 0.03589325
v -0.002655757 1.557948 0.03929274
v -0.01846849 1.559782 0.03040988
v 0.002544505 1.556181 0.03472243
v 0.002655615 1.557948 0.03929275
v -0.01523332 1.55907 0.02620201
v -0.02014928 1.561833 0.02125794
v -0.02240534 1.566465 0.00163412
v -0.01967384 1.562518 0.0008145545
v -0.02417179 1.568743 -0.02071399
v -0.01996266 1.562878 -0.01978563
v -0.02324532 1.566878 -0.03830456
v -0.01904581 1.561335 -0.03706025
v 0.01149367 1.557603 0.03061564
v 0.01205513 1.558647 0.03589328
v 0.01523322 1.55907 0.02620205
v 0.01846838 1.559782 0.03040993
v 0.02014919 1.561833 0.02125802
v 0.01984089 1.562518 0.0008146187
v 0.02260365 1.566465 0.001634194
v 0.02417184 1.568743 -0.02071391
v 0.0199627 1.562878 -0.01978557
v 0.01904591 1.561335 -0.03706019
v 0.02324542 1.566878 -0.03830448
v -0.02240534 1.566465 0.00163412
v -0.02417179 1.568743 -0.02071399
v -0.02238794 1.569825 0.001976512
v -0.02014928 1.561833 0.02125794
v -0.02008655 1.566281 0.02078419
v -0.0184685 1.563843 0.03131485
v -0.01846849 1.559782 0.03040988
v 0.02262105 1.569825 0.001976583
v 0.02417184 1.568743 -0.02071391
v 0.02260365 1.566465 0.001634194
v 0.02021192 1.566281 0.02078428
v 0.02014919 1.561833 0.02125802
v 0.01846838 1.559782 0.03040993
v 0.01846837 1.563843 0.03131491
v 0.01846837 1.563843 0.03131491
v 0.01846838 1.559782 0.03040993
v 0.01205513 1.558647 0.03589328
v 0.0120555 1.562435 0.03673729
v 0.002655612 1.561551 0.04009563
v 0.002655615 1.557948 0.03929275
v -0.002655757 1.557948 0.03929274
v -0.00265576 1.561551 0.04009563
v -0.01205563 1.562435 0.03673726
v -0.01205527 1.558647 0.03589325
v -0.01846849 1.559782 0.03040988
v -0.0184685 1.563843 0.03131485
vt 0.4676732 0.09248798
vt 0.5346867 0.04847224
vt 0.4700459 0.04777196
vt 0.5322144 0.09145746
vt 0.6123236 0.05415541
vt 0.5339465 0.144897
vt 0.4687966 0.1476741
vt 0.4740318 0.1926747
vt 0.53918 0.1878594
vt 0.6147301 0.1401481
vt 0.616489 0.1777578
vt 0.6129332 0.09214359
vt 0.6697994 0.09151754
vt 0.6714168 0.06240747
vt 0.6710022 0.1367995
vt 0.6745685 0.1654034
vt 0.7145223 0.1182416
vt 0.7077799 0.1423212
vt 0.7233692 0.1419991
vt 0.7261416 0.1176614
vt 0.7109883 0.1615729
vt 0.7145482 0.1057971
vt 0.7257639 0.106058
vt 0.6964518 0.1553212
vt 0.6815794 0.1763599
vt 0.6206267 0.1932397
vt 0.616489 0.1777578
vt 0.5452909 0.2132787
vt 0.53918 0.1878594
vt 0.4792832 0.2188342
vt 0.4740318 0.1926747
vt 0.706216 0.08262061
vt 0.7217687 0.0819083
vt 0.6940517 0.07055755
vt 0.7081386 0.06324399
vt 0.6777021 0.05075059
vt 0.6123236 0.05415541
vt 0.6154191 0.03830393
vt 0.5346867 0.04847224
vt 0.5391116 0.02288948
vt 0.4700459 0.04777196
vt 0.4735737 0.02159677
vt 0.985732 0.1350543
vt 0.9267349 0.1818128
vt 0.9879857 0.1771871
vt 0.9246235 0.1374613
vt 0.8537688 0.1807963
vt 0.9241868 0.08171852
vt 0.9852692 0.08312123
vt 0.9869114 0.04098292
vt 0.9256304 0.03728476
vt 0.8539546 0.08289339
vt 0.8524883 0.03986302
vt 0.8543647 0.1380398
vt 0.7873365 0.1365113
vt 0.7863806 0.168095
vt 0.786292 0.08554918
vt 0.7846249 0.05351677
vt 0.7458082 0.1043939
vt 0.7516173 0.07666115
vt 0.7332236 0.07766448
vt 0.7340198 0.1055874
vt 0.7487835 0.05199891
vt 0.7464533 0.1180386
vt 0.7345368 0.1174417
vt 0.7647759 0.06176632
vt 0.7806366 0.04099108
vt 0.8494889 0.02305731
vt 0.8524883 0.03986302
vt 0.9281646 0.01173999
vt 0.9256304 0.03728476
vt 0.9902546 0.0163796
vt 0.9869114 0.04098292
vt 0.7532418 0.1459051
vt 0.7350344 0.1455115
vt 0.7666041 0.1603634
vt 0.7510608 0.1703627
vt 0.7826958 0.1805542
vt 0.8537688 0.1807963
vt 0.8510753 0.1975893
vt 0.9296616 0.2072792
vt 0.9267349 0.1818128
vt 0.9879857 0.1771871
vt 0.9916847 0.2017421
vt 0.6173202 0.02696395
vt 0.5391116 0.02288948
vt 0.6154191 0.03830393
vt 0.6869161 0.03782092
vt 0.6777021 0.05075059
vt 0.7081386 0.06324399
vt 0.717307 0.05318504
vt 0.6206267 0.1932397
vt 0.5452909 0.2132787
vt 0.6232926 0.2044202
vt 0.6815794 0.1763599
vt 0.6917351 0.1884837
vt 0.7208266 0.1709427
vt 0.7109883 0.1615729
vt 0.7109883 0.1615729
vt 0.7208266 0.1709427
vt 0.7350344 0.1455115
vt 0.7233692 0.1419991
vt 0.7261416 0.1176614
vt 0.7345368 0.1174417
vt 0.7340198 0.1055874
vt 0.7257639 0.106058
vt 0.7217687 0.0819083
vt 0.7332236 0.07766448
vt 0.717307 0.05318504
vt 0.7081386 0.06324399
vn -0.1250478 0.984527 -0.1227582
vn -0.2443043 0.9687237 -0.04347035
vn -0.253874 0.9591035 -0.1251736
vn -0.1237035 0.9913684 -0.04342995
vn -0.2296246 0.959049 0.1658237
vn 0.1233124 0.9913861 -0.04413523
vn 0.1250458 0.9845278 -0.1227542
vn 0.25387 0.9591056 -0.1251655
vn 0.2444675 0.968627 -0.04469213
vn 0.1150316 0.9767885 0.180698
vn 0.2301994 0.9590312 0.1651291
vn -0.1139672 0.9768357 0.1811173
vn -0.1107982 0.9397361 0.3234499
vn -0.41826 0.8560299 0.3037619
vn 0.1117364 0.9392552 0.3245222
vn 0.4215269 0.8531907 0.3072142
vn 0.08211413 0.8382239 0.5391084
vn 0.2144607 0.869056 0.4458117
vn 0.2384619 0.7862272 0.5700725
vn 0.09628008 0.7192401 0.688058
vn 0.3352468 0.849119 0.4081747
vn -0.08222724 0.838386 0.5388392
vn -0.09636675 0.7195497 0.687722
vn 0.3126998 0.8837655 0.3481055
vn 0.558054 0.7769496 0.291419
vn 0.7714471 0.6203853 0.1413907
vn 0.7741019 0.6183143 0.1358451
vn 0.8175915 0.574457 -0.03928417
vn 0.8169355 0.5747511 -0.04772446
vn 0.8105527 0.5756514 -0.107841
vn 0.8105527 0.5756514 -0.107841
vn -0.2142311 0.8698868 0.4442995
vn -0.2382352 0.7870093 0.5690873
vn -0.3121742 0.8854598 0.3442502
vn -0.3342604 0.850814 0.4054448
vn -0.554556 0.7812749 0.2864914
vn -0.769505 0.6232368 0.1394203
vn -0.7669617 0.625253 0.1443213
vn -0.8160397 0.5763611 -0.04343968
vn -0.8165203 0.5762718 -0.03471837
vn -0.8105502 0.5756549 -0.1078417
vn -0.8105502 0.5756549 -0.1078417
vn 0.126723 -0.9883791 0.08395195
vn 0.243213 -0.9693662 0.03430256
vn 0.2523703 -0.9645867 0.07669312
vn 0.1235934 -0.991577 0.03872458
vn 0.2277521 -0.9724419 -0.04985892
vn -0.1239018 -0.9915183 0.0392398
vn -0.1267233 -0.9883791 0.08395194
vn -0.2523705 -0.9645866 0.07669309
vn -0.2431731 -0.9693364 0.03541099
vn -0.1146658 -0.9920717 -0.05143363
vn -0.2276131 -0.9724799 -0.04974862
vn 0.1154075 -0.991985 -0.05144822
vn 0.1145087 -0.9886007 -0.0977573
vn 0.4163115 -0.9060128 -0.07632411
vn -0.1147813 -0.9885211 -0.09824067
vn -0.4177111 -0.9051915 -0.07839531
vn -0.08326008 -0.9880839 0.1294532
vn -0.2263075 -0.9733025 0.03830333
vn -0.2457092 -0.9517533 0.1838278
vn -0.09790742 -0.9441848 0.3145303
vn -0.3475465 -0.9376216 0.008782138
vn 0.08326025 -0.9880849 0.1294449
vn 0.09790757 -0.9441906 0.3145126
vn -0.3166496 -0.9469246 -0.05537834
vn -0.5775449 -0.8142123 -0.05916329
vn -0.7674018 -0.6409146 -0.01797697
vn -0.7687477 -0.6393149 -0.01741569
vn -0.8109056 -0.5850927 0.009929098
vn -0.8116492 -0.5840745 0.009083501
vn -0.8062398 -0.5913939 0.01518665
vn -0.8062398 -0.5913939 0.01518665
vn 0.2263074 -0.9733022 0.03830906
vn 0.2457095 -0.9517572 0.1838069
vn 0.3166497 -0.9469247 -0.0553755
vn 0.3475465 -0.9376215 0.008790613
vn 0.5764478 -0.8151988 -0.05620253
vn 0.7667625 -0.6416683 -0.01836014
vn 0.7654586 -0.643212 -0.01873884
vn 0.8103554 -0.5859005 0.006685716
vn 0.8109922 -0.5850325 0.005352698
vn 0.8062401 -0.5913935 0.01518296
vn 0.8062401 -0.5913935 0.01518296
vn -0.9949491 0.004982757 0.1002569
vn -0.9969094 -0.00283924 0.07850743
vn -0.9949849 0.004856944 0.0999074
vn -0.9890686 0.00417043 0.1473971
vn -0.990369 0.006880912 0.138282
vn -0.9862829 -0.001094554 0.1650601
vn -0.9862829 -0.001094554 0.1650601
vn 0.9952387 -0.010096 0.09694347
vn 0.9975593 -0.01217414 0.06875563
vn 0.9951909 -0.01005951 0.09743676
vn 0.9898783 -0.01116862 0.1414785
vn 0.988519 -0.01275081 0.1505573
vn 0.9856797 -0.01577445 0.1678887
vn 0.9856797 -0.01577445 0.1678887
vn 0.6576737 -0.1638498 0.7352678
vn 0.6576737 -0.1638498 0.7352678
vn 0.5112062 -0.1869265 0.8388841
vn 0.5122595 -0.1867902 0.8382719
vn 0.1766436 -0.2140733 0.9607131
vn 0.1762243 -0.2140897 0.9607864
vn -0.1762296 -0.2140913 0.9607851
vn -0.1766492 -0.214075 0.9607117
vn -0.5122519 -0.18679 0.8382764
vn -0.5111995 -0.1869263 0.8388883
vn -0.6576558 -0.1638474 0.7352843
vn -0.6576558 -0.1638474 0.7352843
g Toung_0
f 3/3/3 2/2/2 1/1/1
f 2/2/2 4/4/4 1/1/1
f 4/4/4 2/2/2 5/5/5
f 4/4/4 6/6/6 1/1/1
f 6/6/6 7/7/7 1/1/1
f 7/7/7 6/6/6 8/8/8
f 6/6/6 9/9/9 8/8/8
f 9/9/9 6/6/6 10/10/10
f 6/6/6 4/4/4 10/10/10
f 11/11/11 9/9/9 10/10/10
f 12/12/12 4/4/4 5/5/5
f 4/4/4 12/12/12 10/10/10
f 10/10/10 12/12/12 13/13/13
f 5/5/5 14/14/14 12/12/12
f 14/14/14 13/13/13 12/12/12
f 10/10/10 15/15/15 11/11/11
f 15/15/15 10/10/10 13/13/13
f 15/15/15 16/16/16 11/11/11
f 17/17/17 15/15/15 13/13/13
f 15/15/15 18/18/18 16/16/16
f 18/18/18 15/15/15 17/17/17
f 19/19/19 18/18/18 17/17/17
f 20/20/20 19/19/19 17/17/17
f 18/18/18 19/19/19 21/21/21
f 20/20/20 17/17/17 22/22/22
f 22/22/22 17/17/17 13/13/13
f 23/23/23 20/20/20 22/22/22
f 24/24/24 18/18/18 21/21/21
f 18/18/18 24/24/24 16/16/16
f 24/24/24 21/21/21 25/25/25
f 16/16/16 24/24/24 25/25/25
f 25/25/25 26/26/26 16/16/16
f 26/26/26 27/27/27 16/16/16
f 26/26/26 28/28/28 27/27/27
f 28/28/28 29/29/29 27/27/27
f 29/29/29 28/28/28 30/30/30
f 31/31/31 29/29/29 30/30/30
f 22/22/22 32/32/32 23/23/23
f 32/32/32 33/33/33 23/23/23
f 22/22/22 13/13/13 32/32/32
f 32/32/32 34/34/34 33/33/33
f 34/34/34 32/32/32 13/13/13
f 34/34/34 35/35/35 33/33/33
f 14/14/14 34/34/34 13/13/13
f 34/34/34 14/14/14 35/35/35
f 14/14/14 36/36/36 35/35/35
f 14/14/14 37/37/37 36/36/36
f 37/37/37 38/38/38 36/36/36
f 38/38/38 37/37/37 39/39/39
f 40/40/40 38/38/38 39/39/39
f 39/39/39 41/41/41 40/40/40
f 41/41/41 42/42/42 40/40/40
f 45/45/45 44/44/44 43/43/43
f 44/44/44 46/46/46 43/43/43
f 46/46/46 44/44/44 47/47/47
f 46/46/46 48/48/48 43/43/43
f 48/48/48 49/49/49 43/43/43
f 49/49/49 48/48/48 50/50/50
f 48/48/48 51/51/51 50/50/50
f 51/51/51 48/48/48 52/52/52
f 48/48/48 46/46/46 52/52/52
f 53/53/53 51/51/51 52/52/52
f 54/54/54 46/46/46 47/47/47
f 46/46/46 54/54/54 52/52/52
f 54/54/54 55/55/55 52/52/52
f 47/47/47 56/56/56 54/54/54
f 56/56/56 55/55/55 54/54/54
f 52/52/52 57/57/57 53/53/53
f 55/55/55 57/57/57 52/52/52
f 57/57/57 58/58/58 53/53/53
f 59/59/59 57/57/57 55/55/55
f 57/57/57 60/60/60 58/58/58
f 60/60/60 57/57/57 59/59/59
f 61/61/61 60/60/60 59/59/59
f 62/62/62 61/61/61 59/59/59
f 61/61/61 63/63/63 60/60/60
f 59/59/59 64/64/64 62/62/62
f 64/64/64 59/59/59 55/55/55
f 64/64/64 65/65/65 62/62/62
f 63/63/63 66/66/66 60/60/60
f 60/60/60 66/66/66 58/58/58
f 63/63/63 67/67/67 66/66/66
f 67/67/67 58/58/58 66/66/66
f 58/58/58 67/67/67 68/68/68
f 69/69/69 58/58/58 68/68/68
f 69/69/69 68/68/68 70/70/70
f 71/71/71 69/69/69 70/70/70
f 70/70/70 72/72/72 71/71/71
f 72/72/72 73/73/73 71/71/71
f 64/64/64 74/74/74 65/65/65
f 74/74/74 75/75/75 65/65/65
f 64/64/64 55/55/55 74/74/74
f 75/75/75 74/74/74 76/76/76
f 76/76/76 74/74/74 55/55/55
f 77/77/77 75/75/75 76/76/76
f 56/56/56 76/76/76 55/55/55
f 77/77/77 76/76/76 56/56/56
f 78/78/78 77/77/77 56/56/56
f 78/78/78 56/56/56 79/79/79
f 80/80/80 78/78/78 79/79/79
f 80/80/80 79/79/79 81/81/81
f 79/79/79 82/82/82 81/81/81
f 81/81/81 82/82/82 83/83/83
f 84/84/84 81/81/81 83/83/83
f 87/87/87 86/86/86 85/85/85
f 87/87/87 85/85/85 88/88/88
f 89/89/89 87/87/87 88/88/88
f 89/89/89 88/88/88 90/90/90
f 88/88/88 91/91/91 90/90/90
f 94/94/94 93/93/93 92/92/92
f 94/94/94 92/92/92 95/95/95
f 96/96/96 94/94/94 95/95/95
f 97/97/97 96/96/96 95/95/95
f 98/98/98 97/97/97 95/95/95
f 101/101/101 100/100/100 99/99/99
f 102/102/102 101/101/101 99/99/99
f 101/101/101 102/102/102 103/103/103
f 104/104/104 101/101/101 103/103/103
f 104/104/104 103/103/103 105/105/105
f 103/103/103 106/106/106 105/105/105
f 106/106/106 107/107/107 105/105/105
f 107/107/107 108/108/108 105/105/105
f 109/109/109 108/108/108 107/107/107
f 110/110/110 109/109/109 107/107/107
